<svg id="Layer_1" data-name="Layer 1" xmlns="http://www.w3.org/2000/svg" viewBox="0 0 490.07 118.13"><defs><style>.cls-1{fill:#9ecd51;}.cls-2{fill:#565656;}</style></defs><title>andnowuknow</title><path class="cls-1" d="M233.06,398H219.59v-3.6l3.18-1.14-1-3.09h-9.4l-1.06,3,3.3,1.19V398H201.8v-3.6l3.09-1.19,9.32-25,6.78-.13,9.11,25.08,3,1.19Zm-15.89-22.41-3.35,10h6.52Z" transform="translate(-60.96 -317.78)"/><path class="cls-1" d="M244.87,378.07s4-3.26,7.79-3.26c4.11,0,6.44,2.92,6.44,7.54v11.23l3,1.06V398H250.42v-3.39l2.33-1.06V383.49c0-1.95-1.1-3.39-2.88-3.39-2.63,0-4.53,2.41-4.53,2.41v11.06l2.33,1.06V398H235.6v-3.39l3.39-1.06V379.8l-3.39-1.06v-3.39l9-.21Z" transform="translate(-60.96 -317.78)"/><path class="cls-1" d="M278.21,395.77a9,9,0,0,1-6.4,2.67c-5.93,0-8.68-4.32-8.68-11.31,0-8,3.81-12.41,11.56-12.41a15.5,15.5,0,0,1,3.18.42v-5.38l-3.39-.85v-3.39l9.74-.34v28.3l3.39.85v3.39l-9,.3Zm-.34-15.33a8.34,8.34,0,0,0-3.3-.64c-3.6,0-4.87,2.75-4.87,7s1.19,6.57,4.07,6.57a5.1,5.1,0,0,0,4.11-2.41Z" transform="translate(-60.96 -317.78)"/><path class="cls-1" d="M290.79,394.42l3.18-1.27V373.24L290.79,372v-3.6l10.17-.21,11.44,19.57V373.24L309.3,372v-3.6l12.07-.21V372l-3.18,1.27V398h-7.07l-11.35-19.19v14.32l3.3,1.27V398H290.79Z" transform="translate(-60.96 -317.78)"/><path class="cls-1" d="M344.54,386.16c0,7.62-4.45,12.28-11.31,12.28s-10.8-3.6-10.8-11.65c0-7.63,4.53-12.07,11.44-12.07S344.54,378.87,344.54,386.16Zm-15.55.42c0,4.66,1.36,6.78,4.45,6.78s4.53-1.91,4.53-7c0-4.32-1.27-6.57-4.32-6.57S329,381.5,329,386.58Z" transform="translate(-60.96 -317.78)"/><path class="cls-1" d="M372.08,378.74v-3.39l10.84-.21v3.6l-2.25.51L375,398h-6.48l-3.35-10.8-.76-3.3-1.06,4.62L360.3,398h-6.44l-5.76-18.68-1.86-.59v-3.39l11.1-.21v3.6l-2.67.51,2.8,11.9L362,375.86l5.59-.93,4.62,16.22,2.5-11.78Z" transform="translate(-60.96 -317.78)"/><path class="cls-1" d="M394.31,386.58c0,4.87,1.4,6.78,5.55,6.78,4.49,0,5.46-2.41,5.46-7.41V373.24L402,372v-3.6l13-.21V372l-3.18,1.27v12.71c0,8.18-3.13,12.58-12.24,12.58-8.51,0-11.9-3.77-11.9-11.95V373.24L384.61,372v-3.6l13-.21V372l-3.3,1.27Z" transform="translate(-60.96 -317.78)"/><path class="cls-1" d="M418,394.42l3.18-1.27v-20L418,371.88v-3.52l12.92-.21v3.73l-3.18,1.27v7.29h2.88l7.07-12.07,7.84-.21v3.73l-4,1.19L436,382.3l7.88,10.84,3.18,1.27V398H434.13v-3.6l2.54-1.27-5.8-8h-3.09v8l3.18,1.27V398H418Z" transform="translate(-60.96 -317.78)"/><path class="cls-1" d="M458.65,378.07s4-3.26,7.79-3.26c4.11,0,6.44,2.92,6.44,7.54v11.23l3,1.06V398H464.2v-3.39l2.33-1.06V383.49c0-1.95-1.1-3.39-2.88-3.39-2.63,0-4.53,2.41-4.53,2.41v11.06l2.33,1.06V398H449.38v-3.39l3.39-1.06V379.8l-3.39-1.06v-3.39l9-.21Z" transform="translate(-60.96 -317.78)"/><path class="cls-1" d="M499.65,386.16c0,7.62-4.45,12.28-11.31,12.28s-10.8-3.6-10.8-11.65c0-7.63,4.53-12.07,11.44-12.07S499.65,378.87,499.65,386.16Zm-15.55.42c0,4.66,1.36,6.78,4.45,6.78s4.53-1.91,4.53-7c0-4.32-1.27-6.57-4.32-6.57S484.11,381.5,484.11,386.58Z" transform="translate(-60.96 -317.78)"/><path class="cls-1" d="M527.1,378.74v-3.39l10.84-.21v3.6l-2.24.51L530.07,398h-6.48l-3.35-10.8-.76-3.3-1.06,4.62L515.33,398h-6.44l-5.76-18.68-1.86-.59v-3.39l11.1-.21v3.6l-2.67.51,2.8,11.9L517,375.86l5.59-.93,4.62,16.22,2.5-11.78Z" transform="translate(-60.96 -317.78)"/><path class="cls-2" d="M207.71,415.35a4.94,4.94,0,0,1,.94-1.11,6.8,6.8,0,0,1,1.32-.91,7.48,7.48,0,0,1,1.58-.62,6.73,6.73,0,0,1,1.76-.23,7.94,7.94,0,0,1,2.82.47,6.26,6.26,0,0,1,2.16,1.35,6,6,0,0,1,1.4,2.08,7,7,0,0,1,.49,2.67,9.89,9.89,0,0,1-.68,3.68,9.39,9.39,0,0,1-1.87,3,8.86,8.86,0,0,1-2.83,2,8.5,8.5,0,0,1-3.56.75,6.67,6.67,0,0,1-3.11-.75,5,5,0,0,1-2.2-2.21h-.07L204,435.92h-2.18l4.1-23h2.18l-.46,2.47Zm10.19,3.85a5.82,5.82,0,0,0-.31-1.91,4.39,4.39,0,0,0-.93-1.57,4.33,4.33,0,0,0-1.5-1,5.19,5.19,0,0,0-2.05-.38,6.14,6.14,0,0,0-2.67.59,6.65,6.65,0,0,0-2.15,1.62,7.73,7.73,0,0,0-1.43,2.38,7.89,7.89,0,0,0-.52,2.86,5.51,5.51,0,0,0,.34,2,4.52,4.52,0,0,0,1,1.57,4.42,4.42,0,0,0,1.55,1,5.42,5.42,0,0,0,2,.36,6.19,6.19,0,0,0,2.72-.59,6.47,6.47,0,0,0,2.1-1.6,7.16,7.16,0,0,0,1.35-2.37A8.82,8.82,0,0,0,217.9,419.2Z" transform="translate(-60.96 -317.78)"/><path class="cls-2" d="M225.92,414.63q.15-1,.21-1.76h2.08q-.07.62-.16,1.37t-.2,1.24h.07a6.93,6.93,0,0,1,2.15-2.16,5.33,5.33,0,0,1,2.93-.83q.42,0,.75,0a4.17,4.17,0,0,1,.68.13l-.52,2.08a3.15,3.15,0,0,0-.6-.13,6.14,6.14,0,0,0-.89-.06,4.77,4.77,0,0,0-1.73.33,4.42,4.42,0,0,0-1.55,1,6.68,6.68,0,0,0-1.24,1.79,9.57,9.57,0,0,0-.8,2.62l-1.37,7.81h-2.18l2.08-11.88Q225.78,415.61,225.92,414.63Z" transform="translate(-60.96 -317.78)"/><path class="cls-2" d="M242.12,428.5a8,8,0,0,1-2.83-.49,6.67,6.67,0,0,1-2.23-1.35,6,6,0,0,1-1.45-2.08,6.77,6.77,0,0,1-.52-2.69,9.88,9.88,0,0,1,.67-3.63,9.25,9.25,0,0,1,1.87-3,8.89,8.89,0,0,1,2.86-2,8.76,8.76,0,0,1,3.65-.75A8.22,8.22,0,0,1,247,413a6.36,6.36,0,0,1,2.21,1.35,6.26,6.26,0,0,1,1.45,2.08,6.66,6.66,0,0,1,.52,2.67,10.11,10.11,0,0,1-.67,3.68,8.89,8.89,0,0,1-4.74,5A8.77,8.77,0,0,1,242.12,428.5Zm6.77-9.3a5.67,5.67,0,0,0-.32-1.94,4.3,4.3,0,0,0-1-1.55,4.52,4.52,0,0,0-1.54-1,5.32,5.32,0,0,0-2-.38,5.77,5.77,0,0,0-2.63.6,6.59,6.59,0,0,0-2.08,1.63,7.84,7.84,0,0,0-1.38,2.38,8.12,8.12,0,0,0-.5,2.86,5.66,5.66,0,0,0,.32,1.94,4.29,4.29,0,0,0,1,1.55,4.56,4.56,0,0,0,1.53,1,5.19,5.19,0,0,0,2,.38,5.94,5.94,0,0,0,2.68-.6,6.64,6.64,0,0,0,2.09-1.62,7.4,7.4,0,0,0,1.36-2.37A8.47,8.47,0,0,0,248.89,419.2Z" transform="translate(-60.96 -317.78)"/><path class="cls-2" d="M254.48,421.92a10.1,10.1,0,0,1,.67-3.68,8.93,8.93,0,0,1,4.72-5,8.49,8.49,0,0,1,3.56-.75,6.67,6.67,0,0,1,3.11.75,5,5,0,0,1,2.2,2.21h.06l2.12-11.95h2.18l-4.36,24.61h-2.18l.46-2.51H267a6.35,6.35,0,0,1-2.25,2,6.6,6.6,0,0,1-3.35.86,7.94,7.94,0,0,1-2.82-.47,6.24,6.24,0,0,1-2.16-1.35,6,6,0,0,1-1.4-2.08A7,7,0,0,1,254.48,421.92Zm2.28-.14a5.77,5.77,0,0,0,.31,1.93,4.41,4.41,0,0,0,.93,1.55,4.32,4.32,0,0,0,1.5,1,5.19,5.19,0,0,0,2.05.38,6.14,6.14,0,0,0,2.67-.59,6.67,6.67,0,0,0,2.15-1.62,7.83,7.83,0,0,0,2-5.24,5.51,5.51,0,0,0-.34-2,4.54,4.54,0,0,0-1-1.57,4.41,4.41,0,0,0-1.56-1,5.47,5.47,0,0,0-2-.36,6.18,6.18,0,0,0-2.72.59,6.46,6.46,0,0,0-2.1,1.6,7.16,7.16,0,0,0-1.35,2.37A8.81,8.81,0,0,0,256.76,421.78Z" transform="translate(-60.96 -317.78)"/><path class="cls-2" d="M285.47,428.1q.07-.62.16-1.37t.2-1.24h-.07a6.44,6.44,0,0,1-2.26,2.2,5.81,5.81,0,0,1-2.95.8,5.58,5.58,0,0,1-3.86-1.24,4.31,4.31,0,0,1-1.38-3.39,6.31,6.31,0,0,1,0-.78q0-.39.11-.85l1.68-9.34h2.19l-1.5,8.43a10.47,10.47,0,0,0-.2,1.92,3.84,3.84,0,0,0,.75,2.51,3.24,3.24,0,0,0,2.63.91,4.6,4.6,0,0,0,1.75-.36,5.22,5.22,0,0,0,1.64-1.09,7.08,7.08,0,0,0,1.35-1.86,9,9,0,0,0,.84-2.65L288,412.9h2.18l-2.08,11.88q-.13.62-.28,1.59t-.21,1.73Z" transform="translate(-60.96 -317.78)"/><path class="cls-2" d="M306.3,416.32a3.2,3.2,0,0,0-1.35-1.45,4.23,4.23,0,0,0-2.2-.57,6.21,6.21,0,0,0-2.7.59,6.48,6.48,0,0,0-2.13,1.62,7.65,7.65,0,0,0-1.4,2.38,8.2,8.2,0,0,0-.51,2.89,5.66,5.66,0,0,0,.33,1.94,4.3,4.3,0,0,0,1,1.55,4.54,4.54,0,0,0,1.55,1,5.43,5.43,0,0,0,2.08.38,5.68,5.68,0,0,0,2.57-.55,6.64,6.64,0,0,0,1.92-1.43l1.4,1.2a9.31,9.31,0,0,1-2.64,1.9,7.82,7.82,0,0,1-3.42.7,8.56,8.56,0,0,1-2.93-.47,6.57,6.57,0,0,1-2.24-1.33,5.74,5.74,0,0,1-1.43-2.07,7,7,0,0,1-.49-2.67,10.2,10.2,0,0,1,.66-3.68,9.21,9.21,0,0,1,1.86-3,8.69,8.69,0,0,1,2.89-2,9.15,9.15,0,0,1,3.74-.75,8.16,8.16,0,0,1,3.17.62,4.43,4.43,0,0,1,2.23,2Z" transform="translate(-60.96 -317.78)"/><path class="cls-2" d="M312.06,421.07c0,.13,0,.26,0,.38s0,.23,0,.34a5,5,0,0,0,.37,2,4.68,4.68,0,0,0,2.6,2.55,5.13,5.13,0,0,0,1.94.36,6,6,0,0,0,3.12-.8,7.42,7.42,0,0,0,2.15-1.87l1.37,1.3a8.74,8.74,0,0,1-3.09,2.39,8.94,8.94,0,0,1-3.74.8A8,8,0,0,1,314,428a6.46,6.46,0,0,1-2.2-1.3,6,6,0,0,1-1.46-2.1,7.16,7.16,0,0,1-.54-2.85,9.59,9.59,0,0,1,2.56-6.51,9.19,9.19,0,0,1,2.8-2,8,8,0,0,1,3.47-.76,6.31,6.31,0,0,1,4.74,1.66,5.91,5.91,0,0,1,1.61,4.3q0,.39-.07,1.19a9,9,0,0,1-.23,1.45Zm10.64-1.63c0-.17,0-.36,0-.57s0-.4,0-.57a4,4,0,0,0-1.07-2.88,4.17,4.17,0,0,0-3.16-1.12,6,6,0,0,0-4.05,1.53,7,7,0,0,0-1.35,1.64,6.55,6.55,0,0,0-.78,2Z" transform="translate(-60.96 -317.78)"/><path class="cls-2" d="M338.62,428.1h-2.18l2.7-15.23h2.18Zm4-21.12a1.53,1.53,0,0,1-.44,1.11,1.45,1.45,0,0,1-1.09.46,1.54,1.54,0,0,1-1.06-.39,1.36,1.36,0,0,1-.44-1.07,1.58,1.58,0,0,1,1.56-1.59,1.42,1.42,0,0,1,1.46,1.5Z" transform="translate(-60.96 -317.78)"/><path class="cls-2" d="M349.23,412.87q-.07.62-.16,1.37t-.2,1.24h.07a6.46,6.46,0,0,1,2.27-2.2,5.84,5.84,0,0,1,3-.8,5.57,5.57,0,0,1,3.87,1.25,4.36,4.36,0,0,1,1.39,3.4,6.25,6.25,0,0,1,0,.78q0,.39-.11.85l-1.68,9.34h-2.19l1.5-8.43a10.13,10.13,0,0,0,.19-1.92,3.91,3.91,0,0,0-.75-2.52,3.22,3.22,0,0,0-2.64-.93,4.63,4.63,0,0,0-1.76.36,5.11,5.11,0,0,0-1.64,1.11,7.34,7.34,0,0,0-1.35,1.87,9,9,0,0,0-.85,2.65l-1.37,7.81h-2.18l2.08-11.88q.13-.62.28-1.59t.21-1.76Z" transform="translate(-60.96 -317.78)"/><path class="cls-2" d="M363.26,421.92a10.11,10.11,0,0,1,.67-3.68,8.93,8.93,0,0,1,4.72-5,8.5,8.5,0,0,1,3.56-.75,6.67,6.67,0,0,1,3.11.75,5,5,0,0,1,2.2,2.21h.07l2.12-11.95h2.18l-4.36,24.61h-2.18l.46-2.51h-.07a6.35,6.35,0,0,1-2.25,2,6.6,6.6,0,0,1-3.35.86,7.94,7.94,0,0,1-2.81-.47,6.24,6.24,0,0,1-2.17-1.35,6,6,0,0,1-1.4-2.08A7,7,0,0,1,363.26,421.92Zm2.28-.14a5.77,5.77,0,0,0,.31,1.93,4.41,4.41,0,0,0,.93,1.55,4.33,4.33,0,0,0,1.5,1,5.2,5.2,0,0,0,2.05.38,6.14,6.14,0,0,0,2.67-.59,6.68,6.68,0,0,0,2.15-1.62,7.84,7.84,0,0,0,2-5.24,5.51,5.51,0,0,0-.34-2,4.54,4.54,0,0,0-1-1.57,4.41,4.41,0,0,0-1.56-1,5.47,5.47,0,0,0-2-.36,6.18,6.18,0,0,0-2.72.59,6.45,6.45,0,0,0-2.1,1.6,7.16,7.16,0,0,0-1.35,2.37A8.8,8.8,0,0,0,365.54,421.78Z" transform="translate(-60.96 -317.78)"/><path class="cls-2" d="M394.25,428.1q.06-.62.16-1.37t.2-1.24h-.06a6.45,6.45,0,0,1-2.26,2.2,5.81,5.81,0,0,1-2.95.8,5.58,5.58,0,0,1-3.86-1.24,4.31,4.31,0,0,1-1.38-3.39,6.37,6.37,0,0,1,0-.78q0-.39.11-.85l1.68-9.34h2.19l-1.5,8.43a10.45,10.45,0,0,0-.2,1.92,3.85,3.85,0,0,0,.75,2.51,3.24,3.24,0,0,0,2.63.91,4.6,4.6,0,0,0,1.75-.36,5.22,5.22,0,0,0,1.64-1.09,7.09,7.09,0,0,0,1.35-1.86,9,9,0,0,0,.84-2.65l1.36-7.81h2.18l-2.08,11.88q-.13.62-.28,1.59t-.21,1.73Z" transform="translate(-60.96 -317.78)"/><path class="cls-2" d="M412.7,416.22a3.56,3.56,0,0,0-1.37-1.38,4.22,4.22,0,0,0-2.18-.54,6.12,6.12,0,0,0-1.22.13,4.19,4.19,0,0,0-1.17.42,2.6,2.6,0,0,0-.88.77,1.92,1.92,0,0,0-.34,1.16,2.11,2.11,0,0,0,.21,1,2,2,0,0,0,.6.67,4.24,4.24,0,0,0,.94.49q.55.21,1.27.41A9.31,9.31,0,0,1,412,421a3.49,3.49,0,0,1,1.17,2.82,4,4,0,0,1-.55,2.13,4.75,4.75,0,0,1-1.4,1.46,5.91,5.91,0,0,1-1.89.83,8.43,8.43,0,0,1-2.05.26,9.21,9.21,0,0,1-3.6-.7,5.63,5.63,0,0,1-2.62-2.16l1.89-1.24A4.63,4.63,0,0,0,404.6,426a4.88,4.88,0,0,0,2.57.67,6.66,6.66,0,0,0,1.4-.15,4.19,4.19,0,0,0,1.22-.46,2.49,2.49,0,0,0,.86-.82,2.16,2.16,0,0,0,.33-1.19,2.08,2.08,0,0,0-1-1.84,11.72,11.72,0,0,0-2.75-1.22q-.68-.23-1.37-.52a4.82,4.82,0,0,1-1.24-.77,3.71,3.71,0,0,1-.89-1.14,3.52,3.52,0,0,1-.34-1.62,3.7,3.7,0,0,1,.54-2,4.5,4.5,0,0,1,1.37-1.39,6.17,6.17,0,0,1,1.87-.8,8.55,8.55,0,0,1,2.08-.26,7,7,0,0,1,3.14.68,4.4,4.4,0,0,1,2,1.82Z" transform="translate(-60.96 -317.78)"/><path class="cls-2" d="M426.79,414.69h-4.13l-1.6,8.94a6.46,6.46,0,0,0-.1,1,1.64,1.64,0,0,0,.52,1.44,2.36,2.36,0,0,0,1.37.36,4.17,4.17,0,0,0,1-.14,2.13,2.13,0,0,0,.85-.38l-.26,1.89a3.59,3.59,0,0,1-1.09.34,8.42,8.42,0,0,1-1.42.11,5,5,0,0,1-1.12-.13,2.82,2.82,0,0,1-1-.47,2.64,2.64,0,0,1-.78-.93,3.19,3.19,0,0,1-.31-1.5,6.43,6.43,0,0,1,.1-1l1.69-9.54h-3.16l.36-1.82h3.09l.75-4.3h2.18l-.75,4.3h4.2Z" transform="translate(-60.96 -317.78)"/><path class="cls-2" d="M431.11,414.63q.15-1,.21-1.76h2.08q-.07.62-.16,1.37t-.2,1.24h.07a6.92,6.92,0,0,1,2.15-2.16,5.33,5.33,0,0,1,2.93-.83c.28,0,.53,0,.75,0a4.17,4.17,0,0,1,.68.13l-.52,2.08a3.15,3.15,0,0,0-.6-.13,6.14,6.14,0,0,0-.89-.06,4.77,4.77,0,0,0-1.73.33,4.42,4.42,0,0,0-1.55,1,6.67,6.67,0,0,0-1.24,1.79,9.58,9.58,0,0,0-.8,2.62l-1.37,7.81h-2.18l2.08-11.88Q431,415.61,431.11,414.63Z" transform="translate(-60.96 -317.78)"/><path class="cls-2" d="M446.35,425.7h.06l7.42-12.82h2.44L444.76,432a13.25,13.25,0,0,1-2.21,2.82,4,4,0,0,1-2.83,1.06,8.85,8.85,0,0,1-1.86-.19l.33-2a4.17,4.17,0,0,0,1.43.26,2.59,2.59,0,0,0,1.81-.7,8.37,8.37,0,0,0,1.51-2l1.89-3.19-3.19-15.2h2.28Z" transform="translate(-60.96 -317.78)"/><path class="cls-2" d="M469.92,412.87q-.07.62-.16,1.37c-.07.5-.13.91-.2,1.24h.07a6.45,6.45,0,0,1,2.27-2.2,5.84,5.84,0,0,1,3-.8,5.57,5.57,0,0,1,3.87,1.25,4.36,4.36,0,0,1,1.39,3.4,6.25,6.25,0,0,1,0,.78q0,.39-.11.85l-1.68,9.34h-2.19l1.5-8.43a10.08,10.08,0,0,0,.19-1.92,3.91,3.91,0,0,0-.75-2.52,3.22,3.22,0,0,0-2.64-.93,4.63,4.63,0,0,0-1.76.36,5.12,5.12,0,0,0-1.64,1.11,7.32,7.32,0,0,0-1.35,1.87,9,9,0,0,0-.85,2.65l-1.37,7.81h-2.18l2.08-11.88q.13-.62.28-1.59t.21-1.76Z" transform="translate(-60.96 -317.78)"/><path class="cls-2" d="M486.23,421.07c0,.13,0,.26,0,.38s0,.23,0,.34a5,5,0,0,0,.37,2,4.69,4.69,0,0,0,2.6,2.55,5.13,5.13,0,0,0,1.94.36,6,6,0,0,0,3.12-.8,7.42,7.42,0,0,0,2.15-1.87l1.37,1.3a8.75,8.75,0,0,1-3.09,2.39,8.94,8.94,0,0,1-3.74.8,8,8,0,0,1-2.73-.46,6.45,6.45,0,0,1-2.2-1.3,6,6,0,0,1-1.46-2.1,7.16,7.16,0,0,1-.54-2.85,9.59,9.59,0,0,1,2.56-6.51,9.19,9.19,0,0,1,2.8-2,8,8,0,0,1,3.47-.76,6.31,6.31,0,0,1,4.74,1.66,5.91,5.91,0,0,1,1.61,4.3q0,.39-.06,1.19a9,9,0,0,1-.23,1.45Zm10.64-1.63c0-.17,0-.36,0-.57s0-.4,0-.57a4,4,0,0,0-1.07-2.88,4.17,4.17,0,0,0-3.16-1.12,6,6,0,0,0-4.05,1.53,7.05,7.05,0,0,0-1.35,1.64,6.55,6.55,0,0,0-.78,2Z" transform="translate(-60.96 -317.78)"/><path class="cls-2" d="M505.23,412.87l1,12.37h.06l6.44-12.37h2.08l1.79,12.37h.1l6.09-12.37h2.34l-7.78,15.23h-2.34l-1.73-12.34h-.07l-6.35,12.34h-2.31L503,412.87Z" transform="translate(-60.96 -317.78)"/><path class="cls-2" d="M536.64,416.22a3.56,3.56,0,0,0-1.37-1.38,4.22,4.22,0,0,0-2.18-.54,6.11,6.11,0,0,0-1.22.13,4.18,4.18,0,0,0-1.17.42,2.61,2.61,0,0,0-.88.77,1.92,1.92,0,0,0-.34,1.16,2.1,2.1,0,0,0,.21,1,2,2,0,0,0,.6.67,4.23,4.23,0,0,0,.94.49q.55.21,1.27.41a9.32,9.32,0,0,1,3.42,1.64,3.49,3.49,0,0,1,1.17,2.82,4,4,0,0,1-.55,2.13,4.74,4.74,0,0,1-1.4,1.46,5.91,5.91,0,0,1-1.89.83,8.44,8.44,0,0,1-2.05.26,9.21,9.21,0,0,1-3.6-.7,5.63,5.63,0,0,1-2.62-2.16l1.89-1.24a4.64,4.64,0,0,0,1.66,1.61,4.88,4.88,0,0,0,2.57.67,6.66,6.66,0,0,0,1.4-.15,4.18,4.18,0,0,0,1.22-.46,2.49,2.49,0,0,0,.86-.82,2.16,2.16,0,0,0,.33-1.19,2.08,2.08,0,0,0-1-1.84,11.71,11.71,0,0,0-2.75-1.22q-.68-.23-1.37-.52a4.81,4.81,0,0,1-1.24-.77,3.71,3.71,0,0,1-.89-1.14,3.52,3.52,0,0,1-.34-1.62,3.7,3.7,0,0,1,.54-2,4.51,4.51,0,0,1,1.37-1.39,6.17,6.17,0,0,1,1.87-.8,8.55,8.55,0,0,1,2.08-.26,7,7,0,0,1,3.14.68,4.41,4.41,0,0,1,2,1.82Z" transform="translate(-60.96 -317.78)"/><path class="cls-1" d="M532.25,359.81a9.66,9.66,0,0,1,1-2.29,9.6,9.6,0,0,1,3.43-3.43,9.7,9.7,0,0,1,2.28-1,9.58,9.58,0,0,1,5.08,0,9.67,9.67,0,0,1,2.29,1,9.6,9.6,0,0,1,3.43,3.43,9.69,9.69,0,0,1,1,2.29,9.56,9.56,0,0,1,0,5.08,9.61,9.61,0,0,1-4.4,5.7,9.67,9.67,0,0,1-2.29,1,9.58,9.58,0,0,1-5.08,0,9.7,9.7,0,0,1-2.28-1,9.59,9.59,0,0,1-4.4-5.7,9.58,9.58,0,0,1,0-5.08Zm2,5.69a7.93,7.93,0,0,0,1.66,2.54,7.77,7.77,0,0,0,2.48,1.7,7.59,7.59,0,0,0,3.07.62,7.68,7.68,0,0,0,3.08-.62A7.81,7.81,0,0,0,547,368a7.94,7.94,0,0,0,1.67-2.54,8.1,8.1,0,0,0,.61-3.15,8.34,8.34,0,0,0-1.06-4.1,7.68,7.68,0,0,0-1.22-1.63,8.06,8.06,0,0,0-1.59-1.26,7.6,7.6,0,0,0-1.88-.81,7.94,7.94,0,0,0-4.22,0,7.63,7.63,0,0,0-1.87.81,7.75,7.75,0,0,0-1.57,1.26,7.94,7.94,0,0,0-1.21,1.63,8.21,8.21,0,0,0-.78,1.94,8.5,8.5,0,0,0-.27,2.16A8.19,8.19,0,0,0,534.26,365.5Zm5.76,2.63h-2.77V356.52h4.16a5.83,5.83,0,0,1,3.55.87,3,3,0,0,1,1.13,2.49,3.23,3.23,0,0,1-2.45,3.28,1.61,1.61,0,0,1,.49.42,5.42,5.42,0,0,1,.39.59l2.34,4h-2.67a.85.85,0,0,1-.82-.43l-1.86-3.41a1,1,0,0,0-.29-.28,1,1,0,0,0-.49-.1H540Zm1.15-6.19a4.49,4.49,0,0,0,1.09-.11,1.53,1.53,0,0,0,.67-.33,1.14,1.14,0,0,0,.33-.54,2.73,2.73,0,0,0,.09-.74,2.85,2.85,0,0,0-.08-.71A1,1,0,0,0,543,359a1.33,1.33,0,0,0-.6-.3,4.06,4.06,0,0,0-1-.1H540v3.33Z" transform="translate(-60.96 -317.78)"/><path class="cls-1" d="M78.63,413.41c-.62-46.85,37.76-52.61,46.43-50.76,1,.21,2,.37,3,.49-10.26-3.45-24-11.73-23-31.28,0,0,24,2.17,32.34,28.15,3.66-15.47,9.52-36.18,14.73-36.18,6.42,0,2.76,5.53,2.76,5.53s-9,20.68-10.51,33.48c1.76-.19,1.09-.17,1.09-.17,9.39-2,22.81-1.81,33.54,5.76V317.78H61V435.84H81.62A89,89,0,0,1,78.63,413.41Z" transform="translate(-60.96 -317.78)"/></svg>