<svg width="291" height="70" viewBox="0 0 291 70" fill="none" xmlns="http://www.w3.org/2000/svg">
<g clip-path="url(#clip0)">
<path d="M102.192 47.5358H94.1934V45.4025L96.0816 44.727L95.4878 42.896H89.9062L89.2767 44.6737L91.2363 45.3788V47.5358H83.6298V45.4025L85.4646 44.6974L90.9987 29.8832L95.0247 29.8062L100.434 44.6678L102.216 45.3729L102.192 47.5358ZM92.7564 34.2563L90.7672 40.182H94.6387L92.7564 34.2563Z" fill="white"/>
<path d="M109.204 35.7258C109.204 35.7258 111.58 33.7941 113.83 33.7941C116.271 33.7941 117.654 35.5244 117.654 38.262V44.9165L119.435 45.5447V47.5357H112.5V45.5269L113.883 44.8988V38.9375C113.883 37.782 113.23 36.9288 112.173 36.9288C110.612 36.9288 109.483 38.3568 109.483 38.3568V44.9106L110.867 45.5388V47.5357H103.7V45.5269L105.713 44.8988V36.751L103.7 36.1229V34.1141L109.044 33.9896L109.204 35.7258Z" fill="white"/>
<path d="M129.002 46.2143C128.504 46.7157 127.913 47.1137 127.26 47.3853C126.608 47.6569 125.908 47.7966 125.201 47.7964C121.68 47.7964 120.047 45.2365 120.047 41.0945C120.047 36.354 122.309 33.7407 126.911 33.7407C127.548 33.7583 128.181 33.8417 128.8 33.9896V30.8016L126.787 30.2979V28.2891L132.57 28.0876V44.8573L134.583 45.361V47.3698L129.239 47.5475L129.002 46.2143ZM128.8 37.1302C128.179 36.8724 127.512 36.7434 126.84 36.751C124.702 36.751 123.948 38.3805 123.948 40.8989C123.948 43.4174 124.655 44.7921 126.365 44.7921C126.858 44.7703 127.337 44.6288 127.763 44.3799C128.188 44.1311 128.546 43.7823 128.806 43.364L128.8 37.1302Z" fill="white"/>
<path d="M136.471 45.4144L138.36 44.6618V32.8638L136.471 32.129V29.9958L142.51 29.8713L149.303 41.4679V32.8638L147.462 32.129V29.9958L154.63 29.8713V32.129L152.741 32.8816V47.5358H148.543L141.804 36.1644V44.65L143.763 45.4025V47.5358H136.471V45.4144Z" fill="white"/>
<path d="M168.388 40.5198C168.388 45.0352 165.745 47.7965 161.672 47.7965C157.598 47.7965 155.259 45.6633 155.259 40.8931C155.259 36.3718 157.949 33.7408 162.052 33.7408C166.155 33.7408 168.388 36.2 168.388 40.5198ZM159.154 40.7687C159.154 43.53 159.962 44.7863 161.797 44.7863C163.631 44.7863 164.486 43.6545 164.486 40.6383C164.486 38.0784 163.732 36.7452 161.921 36.7452C160.11 36.7452 159.16 37.7584 159.16 40.7687H159.154Z" fill="white"/>
<path d="M184.741 36.1229V34.1141L191.177 33.9897V36.1229L189.841 36.4251L186.475 47.5358H182.627L180.638 41.1361L180.186 39.1806L179.557 41.9182L177.746 47.5358H173.922L170.502 36.4666L169.397 36.117V34.1082L175.988 33.9838V36.117L174.403 36.4192L176.065 43.4708L178.755 34.4163L182.075 33.8652L184.818 43.4767L186.302 36.4962L184.741 36.1229Z" fill="white"/>
<path d="M197.941 40.7686C197.941 43.6545 198.772 44.7863 201.236 44.7863C203.902 44.7863 204.478 43.3582 204.478 40.3953V32.8638L202.507 32.129V29.9958L210.226 29.8713V32.129L208.338 32.8816V40.4131C208.338 45.2603 206.48 47.8676 201.07 47.8676C196.017 47.8676 194.004 45.6336 194.004 40.7864V32.8638L192.181 32.129V29.9958L199.9 29.8713V32.129L197.941 32.8816V40.7686Z" fill="white"/>
<path d="M212.008 45.4144L213.896 44.6618V32.8105L212.008 32.0579V29.9721L219.68 29.8477V32.0579L217.791 32.8105V37.1303H219.501L223.7 29.978L228.355 29.8536V32.0639L225.98 32.769L222.696 38.2325L227.375 44.6559L229.263 45.4085V47.5358H221.586V45.4025L223.094 44.65L219.65 39.9095H217.815V44.65L219.703 45.4025V47.5358H212.008V45.4144Z" fill="white"/>
<path d="M236.145 35.7258C236.145 35.7258 238.521 33.7941 240.771 33.7941C243.212 33.7941 244.595 35.5244 244.595 38.262V44.9165L246.377 45.5447V47.5357H239.441V45.5269L240.825 44.8988V38.9375C240.825 37.782 240.171 36.9288 239.114 36.9288C237.553 36.9288 236.425 38.3568 236.425 38.3568V44.9106L237.808 45.5388V47.5357H230.641V45.5269L232.654 44.8988V36.751L230.641 36.1229V34.1141L235.985 33.9896L236.145 35.7258Z" fill="white"/>
<path d="M260.491 40.5198C260.491 45.0352 257.849 47.7965 253.775 47.7965C249.702 47.7965 247.362 45.6633 247.362 40.8931C247.362 36.3718 250.052 33.7408 254.155 33.7408C258.258 33.7408 260.491 36.2 260.491 40.5198ZM251.257 40.7687C251.257 43.53 252.065 44.7863 253.9 44.7863C255.735 44.7863 256.59 43.6545 256.59 40.6383C256.59 38.0784 255.836 36.7452 254.025 36.7452C252.213 36.7452 251.263 37.7584 251.263 40.7687H251.257Z" fill="white"/>
<path d="M276.79 36.1229V34.1141L283.227 33.9897V36.1229L281.897 36.4251L278.554 47.5358H274.706L272.717 41.1361L272.266 39.1806L271.636 41.9182L269.801 47.5358H265.977L262.557 36.4666L261.453 36.117V34.1082L268.044 33.9838V36.117L266.458 36.4192L268.121 43.4708L270.793 34.4163L274.112 33.8652L276.856 43.4767L278.34 36.4962L276.79 36.1229Z" fill="white"/>
<path d="M87.139 57.8169C87.2916 57.5713 87.4796 57.3497 87.6972 57.1591C87.9363 56.9491 88.1994 56.7681 88.481 56.6199C88.7788 56.4623 89.0935 56.339 89.4192 56.2525C89.76 56.1612 90.1114 56.1154 90.4643 56.1162C91.0347 56.1072 91.6021 56.2015 92.1388 56.3947C92.6167 56.5708 93.0533 56.8431 93.4214 57.1947C93.7824 57.5425 94.0657 57.9625 94.2527 58.4272C94.4522 58.9306 94.551 59.4681 94.5436 60.0093C94.5493 60.7553 94.4123 61.4954 94.1399 62.19C93.8859 62.8474 93.5091 63.4506 93.0295 63.9677C92.553 64.4693 91.9819 64.872 91.349 65.1528C90.6848 65.4515 89.9637 65.6031 89.2351 65.5973C88.5926 65.6008 87.9588 65.4483 87.3884 65.1528C86.8242 64.8665 86.3665 64.4076 86.0821 63.8433H86.0405L84.9361 70.006H83.6416L86.0761 56.3769H87.3706L87.0975 57.8406L87.139 57.8169ZM93.1898 60.0982C93.1922 59.7134 93.1299 59.3308 93.0057 58.9664C92.889 58.6212 92.7008 58.3042 92.4535 58.0361C92.2015 57.7784 91.8981 57.5765 91.5628 57.4435C91.1765 57.2871 90.7624 57.2105 90.3455 57.2184C89.7974 57.2145 89.2555 57.334 88.7601 57.568C88.2734 57.7978 87.839 58.1244 87.4834 58.5279C87.1174 58.943 86.8297 59.4208 86.6343 59.9382C86.4271 60.4792 86.3224 61.0539 86.3255 61.633C86.3188 62.0371 86.3872 62.439 86.5274 62.8181C86.6585 63.166 86.8608 63.4828 87.1212 63.7484C87.3828 64.0084 87.6965 64.2103 88.0416 64.341C88.4204 64.4862 88.8234 64.5586 89.2292 64.5543C89.7872 64.5617 90.3395 64.4421 90.8443 64.2047C91.3208 63.9776 91.7453 63.6548 92.0913 63.2566C92.4462 62.8441 92.7183 62.3673 92.8929 61.8522C93.0916 61.2888 93.192 60.6955 93.1898 60.0982Z" fill="white"/>
<path d="M97.9521 57.3902C98.0115 56.9952 98.053 56.6475 98.0768 56.3473H99.3119C99.2842 56.5922 99.2525 56.8628 99.2169 57.1591C99.1812 57.4554 99.1417 57.7003 99.0981 57.8939H99.1397C99.4648 57.378 99.9009 56.9408 100.416 56.614C100.936 56.2847 101.541 56.1137 102.156 56.1221C102.322 56.1221 102.471 56.1221 102.601 56.1221C102.738 56.1366 102.873 56.1624 103.005 56.1992L102.697 57.4317C102.581 57.3945 102.461 57.3687 102.34 57.3547C102.165 57.33 101.989 57.3182 101.812 57.3191C101.46 57.3201 101.112 57.3864 100.784 57.5147C100.439 57.6454 100.126 57.8473 99.8641 58.1072C99.5622 58.4182 99.3134 58.7766 99.1278 59.1679C98.8957 59.66 98.7357 60.1829 98.6528 60.7204L97.8393 65.3484H96.5448L97.7799 58.3087C97.8393 58.0835 97.8967 57.7774 97.9521 57.3902Z" fill="white"/>
<path d="M107.571 65.6091C106.998 65.6142 106.429 65.5159 105.891 65.3187C105.401 65.1416 104.951 64.8697 104.567 64.5187C104.195 64.1738 103.902 63.7536 103.706 63.2862C103.495 62.7814 103.39 62.239 103.397 61.6922C103.393 60.9566 103.528 60.2269 103.795 59.5412C104.047 58.8829 104.424 58.2793 104.905 57.7635C105.387 57.2603 105.965 56.8575 106.604 56.5783C107.286 56.2768 108.025 56.1252 108.771 56.1339C109.35 56.1294 109.925 56.2277 110.469 56.4243C110.957 56.5983 111.404 56.8706 111.781 57.2242C112.15 57.5722 112.443 57.9916 112.642 58.4568C112.853 58.9573 112.958 59.496 112.951 60.0389C112.956 60.7842 112.821 61.5237 112.553 62.2196C112.305 62.8755 111.929 63.4754 111.445 63.9842C110.962 64.4929 110.382 64.9003 109.739 65.1824C109.055 65.4777 108.316 65.6232 107.571 65.6091ZM111.591 60.0982C111.596 59.7069 111.531 59.3178 111.401 58.9486C111.272 58.6032 111.07 58.2898 110.808 58.0301C110.547 57.7722 110.235 57.5705 109.893 57.4375C109.516 57.2869 109.112 57.2104 108.706 57.2124C108.164 57.2061 107.629 57.3279 107.144 57.5679C106.671 57.8033 106.251 58.1319 105.909 58.5338C105.554 58.952 105.277 59.4295 105.089 59.9441C104.889 60.4866 104.789 61.0607 104.792 61.6389C104.788 62.0302 104.852 62.4192 104.982 62.7884C105.111 63.1339 105.314 63.4474 105.576 63.7069C105.836 63.9636 106.145 64.1652 106.485 64.2995C106.862 64.4521 107.265 64.5286 107.672 64.5247C108.223 64.5318 108.768 64.4101 109.264 64.1691C109.738 63.9354 110.16 63.609 110.505 63.2092C110.859 62.7951 111.133 62.3189 111.312 61.8048C111.504 61.2563 111.598 60.6789 111.591 60.0982Z" fill="white"/>
<path d="M114.911 61.71C114.906 60.9648 115.041 60.2252 115.309 59.5294C115.556 58.8752 115.932 58.2765 116.413 57.768C116.894 57.2594 117.471 56.8511 118.111 56.5665C118.775 56.2677 119.497 56.1161 120.225 56.1221C120.868 56.1186 121.502 56.2711 122.072 56.5665C122.636 56.8529 123.094 57.3118 123.378 57.8761H123.414L124.673 50.7949H125.967L123.378 65.378H122.084L122.357 63.8907H122.345C122.001 64.3869 121.543 64.7933 121.009 65.0758C120.403 65.4191 119.716 65.595 119.02 65.5854C118.449 65.5944 117.882 65.5001 117.345 65.3069C116.867 65.1311 116.431 64.8588 116.063 64.507C115.702 64.1591 115.418 63.7391 115.231 63.2744C115.024 62.7786 114.915 62.2473 114.911 61.71ZM116.265 61.6271C116.26 62.016 116.323 62.4027 116.449 62.7707C116.567 63.1116 116.755 63.4244 117.001 63.6892C117.253 63.947 117.556 64.149 117.892 64.2818C118.278 64.4382 118.692 64.5148 119.109 64.507C119.657 64.5108 120.199 64.3913 120.694 64.1573C121.181 63.9273 121.615 63.6006 121.971 63.1974C122.737 62.3442 123.16 61.2382 123.159 60.0923C123.165 59.6882 123.097 59.2863 122.957 58.9072C122.825 58.5595 122.623 58.2427 122.363 57.9768C122.1 57.7161 121.784 57.5141 121.437 57.3843C121.058 57.2398 120.655 57.1674 120.249 57.171C119.691 57.1634 119.139 57.283 118.634 57.5206C118.157 57.7476 117.733 58.0704 117.387 58.4687C117.032 58.8812 116.76 59.358 116.585 59.8731C116.378 60.4351 116.27 61.0284 116.265 61.6271Z" fill="white"/>
<path d="M133.312 65.3721C133.34 65.1271 133.372 64.8565 133.407 64.5603C133.443 64.264 133.483 64.019 133.526 63.8255H133.485C133.153 64.3643 132.691 64.8123 132.143 65.1291C131.612 65.4403 131.007 65.604 130.391 65.6032C129.562 65.6537 128.744 65.3914 128.099 64.8684C127.823 64.6141 127.607 64.3023 127.465 63.9551C127.323 63.6079 127.26 63.2339 127.28 62.8596C127.27 62.7057 127.27 62.5513 127.28 62.3974C127.28 62.2433 127.301 62.0754 127.345 61.8937L128.342 56.3591H129.643L128.752 61.3545C128.678 61.7293 128.638 62.1101 128.633 62.4922C128.603 63.0247 128.76 63.5512 129.079 63.9795C129.283 64.1796 129.528 64.3317 129.799 64.425C130.069 64.5183 130.356 64.5503 130.64 64.5188C130.997 64.5161 131.35 64.4436 131.68 64.3054C132.042 64.1537 132.373 63.9346 132.653 63.6595C132.979 63.3382 133.25 62.9659 133.455 62.5574C133.702 62.0629 133.87 61.5331 133.954 60.9871L134.815 56.365H136.109L134.874 63.4047C134.823 63.6497 134.767 63.9637 134.708 64.3469C134.648 64.7301 134.607 65.0718 134.583 65.3721H133.312Z" fill="white"/>
<path d="M145.681 58.3916C145.512 58.0277 145.231 57.7269 144.879 57.5323C144.483 57.3029 144.031 57.1861 143.573 57.1946C143.019 57.1894 142.471 57.309 141.97 57.5442C141.486 57.7729 141.055 58.0998 140.705 58.5042C140.345 58.92 140.063 59.3979 139.874 59.9145C139.67 60.4625 139.568 61.0426 139.571 61.627C139.569 62.0186 139.635 62.4077 139.767 62.7766C139.896 63.122 140.099 63.4353 140.361 63.695C140.624 63.9533 140.937 64.155 141.281 64.2876C141.674 64.4427 142.094 64.5192 142.516 64.5128C143.043 64.5247 143.566 64.4131 144.042 64.1869C144.471 63.9757 144.857 63.6886 145.182 63.3395L146.014 64.0506C145.561 64.5147 145.031 64.8958 144.446 65.1764C143.809 65.4656 143.115 65.6074 142.415 65.5912C141.823 65.6002 141.235 65.5059 140.675 65.3127C140.184 65.1413 139.732 64.8733 139.345 64.5246C138.975 64.1835 138.685 63.7645 138.496 63.298C138.297 62.7946 138.198 62.2571 138.205 61.7159C138.2 60.9711 138.333 60.2318 138.597 59.5352C138.847 58.8771 139.222 58.2735 139.702 57.7575C140.187 57.25 140.771 56.8467 141.418 56.5724C142.118 56.2702 142.875 56.1188 143.638 56.128C144.284 56.124 144.924 56.2489 145.521 56.4953C146.087 56.725 146.555 57.144 146.845 57.6805L145.681 58.3916Z" fill="white"/>
<path d="M149.101 61.2063C149.101 61.2833 149.101 61.3603 149.101 61.4314C149.101 61.5026 149.101 61.5677 149.101 61.6329C149.092 62.0388 149.167 62.4422 149.321 62.8181C149.464 63.1601 149.675 63.47 149.94 63.7296C150.205 63.9891 150.519 64.193 150.865 64.3291C151.231 64.4739 151.623 64.5464 152.017 64.5424C152.666 64.5559 153.307 64.3919 153.87 64.0684C154.363 63.7848 154.796 63.4085 155.146 62.9603L155.96 63.7306C155.463 64.3348 154.836 64.8189 154.125 65.1468C153.428 65.4629 152.67 65.6246 151.904 65.6209C151.34 65.6168 150.781 65.5125 150.253 65.3128C149.771 65.1453 149.327 64.8834 148.947 64.5424C148.572 64.1946 148.276 63.7702 148.08 63.298C147.859 62.7628 147.75 62.1881 147.759 61.6092C147.761 60.1782 148.304 58.8006 149.279 57.7516C149.754 57.2556 150.318 56.8535 150.942 56.5665C151.586 56.2642 152.291 56.1103 153.003 56.1161C153.514 56.0791 154.028 56.1473 154.512 56.3165C154.996 56.4857 155.441 56.7523 155.817 57.0998C156.139 57.4394 156.389 57.8398 156.553 58.2774C156.717 58.715 156.792 59.1809 156.773 59.6478C156.773 59.8019 156.759 60.0369 156.732 60.353C156.71 60.6426 156.664 60.93 156.595 61.2122L149.101 61.2063ZM155.419 60.2404C155.419 60.1396 155.419 60.0271 155.419 59.9026C155.419 59.7782 155.419 59.6656 155.419 59.5649C155.431 59.2526 155.381 58.9411 155.272 58.6483C155.163 58.3554 154.997 58.0869 154.784 57.8583C154.534 57.6241 154.239 57.4442 153.916 57.33C153.593 57.2157 153.249 57.1696 152.908 57.1946C152.021 57.1876 151.163 57.5109 150.503 58.1012C150.188 58.3826 149.917 58.7103 149.701 59.073C149.482 59.44 149.326 59.8404 149.238 60.2582L155.419 60.2404Z" fill="white"/>
<path d="M164.872 65.372H163.578L165.181 56.3472H166.476L164.872 65.372ZM167.248 52.857C167.251 52.9785 167.229 53.0993 167.184 53.2123C167.139 53.3253 167.072 53.4282 166.986 53.5147C166.904 53.603 166.803 53.6729 166.692 53.7199C166.58 53.7669 166.46 53.7898 166.339 53.7873C166.108 53.7926 165.883 53.71 165.71 53.5562C165.622 53.4762 165.553 53.3779 165.508 53.2683C165.463 53.1587 165.443 53.0405 165.448 52.9222C165.447 52.6749 165.543 52.437 165.717 52.2605C165.891 52.0839 166.127 51.9831 166.375 51.98C166.492 51.9765 166.608 51.9973 166.716 52.0411C166.825 52.0848 166.923 52.1506 167.004 52.2342C167.086 52.3177 167.149 52.4173 167.19 52.5266C167.231 52.6358 167.248 52.7524 167.242 52.8688L167.248 52.857Z" fill="white"/>
<path d="M171.173 56.3473C171.145 56.5922 171.113 56.8628 171.078 57.1591C171.042 57.4554 171.002 57.7003 170.959 57.8939H171C171.335 57.3546 171.798 56.9067 172.348 56.5902C172.888 56.2747 173.504 56.1109 174.13 56.1162C174.962 56.0652 175.783 56.3298 176.428 56.8569C176.704 57.1126 176.921 57.4253 177.063 57.7733C177.206 58.1213 177.271 58.4961 177.253 58.8716C177.263 59.0255 177.263 59.1799 177.253 59.3338C177.253 59.4879 177.231 59.6558 177.188 59.8375L176.19 65.3721H174.89L175.78 60.3767C175.854 60.002 175.892 59.621 175.893 59.239C175.922 58.7049 175.765 58.1773 175.448 57.7457C175.245 57.5421 174.999 57.3867 174.727 57.2913C174.456 57.1959 174.166 57.1629 173.88 57.1946C173.521 57.197 173.166 57.2695 172.835 57.408C172.471 57.5618 172.14 57.7852 171.861 58.0657C171.537 58.3906 171.267 58.7646 171.06 59.1738C170.811 59.668 170.641 60.1978 170.555 60.7441L169.742 65.3721H168.447L169.682 58.3324C169.734 58.0875 169.789 57.7734 169.848 57.3902C169.908 57.007 169.949 56.6594 169.973 56.3473H171.173Z" fill="white"/>
<path d="M179.504 61.71C179.499 60.9648 179.634 60.2252 179.901 59.5294C180.149 58.8752 180.524 58.2765 181.006 57.7679C181.487 57.2594 182.064 56.8511 182.704 56.5665C183.368 56.2679 184.089 56.1163 184.818 56.1221C185.461 56.1185 186.094 56.2711 186.665 56.5665C187.229 56.8529 187.687 57.3118 187.971 57.8761H188.013L189.271 50.7949H190.566L187.977 65.378H186.683L186.956 63.8907H186.914C186.57 64.3869 186.112 64.7933 185.578 65.0758C184.972 65.4191 184.286 65.595 183.589 65.5854C183.02 65.5937 182.455 65.4994 181.92 65.3069C181.44 65.1318 181.001 64.8594 180.632 64.5069C180.271 64.1591 179.987 63.7391 179.8 63.2744C179.601 62.777 179.5 62.2457 179.504 61.71ZM180.857 61.627C180.853 62.0159 180.915 62.4027 181.041 62.7707C181.16 63.1116 181.348 63.4244 181.594 63.6892C181.846 63.9469 182.149 64.1488 182.484 64.2818C182.871 64.4381 183.285 64.5147 183.702 64.5069C184.25 64.5108 184.792 64.3913 185.287 64.1573C185.774 63.9271 186.208 63.6005 186.564 63.1973C187.33 62.3439 187.753 61.2381 187.751 60.0923C187.758 59.6882 187.69 59.2863 187.549 58.9072C187.418 58.5595 187.216 58.2427 186.956 57.9768C186.692 57.7161 186.377 57.5141 186.029 57.3843C185.65 57.2398 185.247 57.1674 184.842 57.171C184.284 57.1634 183.731 57.283 183.227 57.5206C182.75 57.7474 182.325 58.0702 181.98 58.4687C181.625 58.8812 181.353 59.358 181.178 59.8731C180.971 60.435 180.863 61.0283 180.857 61.627Z" fill="white"/>
<path d="M197.905 65.3721C197.929 65.1271 197.961 64.8565 198 64.5603C198.04 64.264 198.079 64.019 198.119 63.8255H198.083C197.751 64.3641 197.29 64.8121 196.741 65.1291C196.21 65.4403 195.605 65.604 194.99 65.6032C194.16 65.6537 193.342 65.3914 192.698 64.8684C192.422 64.6141 192.205 64.3023 192.064 63.9551C191.922 63.6079 191.859 63.2339 191.878 62.8596C191.869 62.7057 191.869 62.5513 191.878 62.3974C191.878 62.2433 191.9 62.0754 191.943 61.8937L192.941 56.3591H194.241L193.351 61.3545C193.276 61.7292 193.236 62.1101 193.232 62.4922C193.202 63.0247 193.359 63.5509 193.677 63.9795C193.881 64.1796 194.127 64.3317 194.397 64.425C194.667 64.5183 194.955 64.5503 195.239 64.5188C195.596 64.5161 195.949 64.4436 196.278 64.3054C196.641 64.1537 196.971 63.9346 197.252 63.6595C197.577 63.3381 197.848 62.9658 198.054 62.5574C198.3 62.0629 198.469 61.5331 198.552 60.9871L199.36 56.3591H200.654L199.419 63.3988C199.368 63.6437 199.312 63.9578 199.253 64.341C199.194 64.7242 199.152 65.0659 199.128 65.3661L197.905 65.3721Z" fill="white"/>
<path d="M208.861 58.3323C208.671 57.9897 208.389 57.7065 208.047 57.5146C207.653 57.2932 207.205 57.1826 206.753 57.1946C206.509 57.196 206.267 57.2218 206.028 57.2716C205.786 57.3196 205.551 57.4035 205.334 57.5205C205.127 57.631 204.948 57.7871 204.811 57.9768C204.671 58.1782 204.601 58.4193 204.609 58.6642C204.601 58.8689 204.644 59.0724 204.734 59.2567C204.821 59.4143 204.943 59.5501 205.09 59.6537C205.263 59.7735 205.451 59.871 205.648 59.9441C205.866 60.0271 206.117 60.108 206.402 60.1871C207.144 60.3688 207.839 60.7017 208.445 61.1648C208.68 61.3726 208.865 61.631 208.985 61.9205C209.106 62.21 209.158 62.523 209.14 62.8358C209.151 63.2787 209.038 63.716 208.813 64.098C208.602 64.4426 208.318 64.7377 207.982 64.9631C207.64 65.1915 207.26 65.358 206.86 65.455C206.462 65.556 206.053 65.6077 205.642 65.609C204.909 65.6152 204.182 65.4741 203.505 65.1942C202.866 64.9375 202.323 64.4906 201.949 63.9143L203.071 63.1795C203.313 63.5727 203.65 63.8988 204.051 64.1276C204.513 64.3982 205.041 64.5357 205.577 64.5247C205.857 64.5244 206.135 64.4946 206.408 64.4358C206.663 64.3832 206.907 64.2912 207.133 64.1632C207.34 64.0447 207.515 63.878 207.643 63.6773C207.776 63.4663 207.844 63.2212 207.839 62.9721C207.846 62.7542 207.794 62.5385 207.69 62.3469C207.586 62.1554 207.432 61.9949 207.246 61.8818C206.735 61.5718 206.186 61.3288 205.613 61.1589C205.343 61.068 205.072 60.9653 204.799 60.8507C204.532 60.7368 204.284 60.583 204.063 60.3945C203.844 60.2061 203.664 59.9765 203.534 59.7189C203.392 59.4195 203.322 59.0904 203.333 58.759C203.324 58.3415 203.435 57.9303 203.653 57.5738C203.861 57.2432 204.138 56.962 204.467 56.7502C204.808 56.5319 205.183 56.3717 205.577 56.2761C205.981 56.1744 206.396 56.1226 206.812 56.122C207.457 56.1103 208.095 56.2482 208.677 56.525C209.176 56.7512 209.592 57.1285 209.864 57.6035L208.861 58.3323Z" fill="white"/>
<path d="M217.227 57.4256H214.775L213.825 62.7232C213.79 62.9189 213.77 63.117 213.765 63.3158C213.743 63.4723 213.76 63.6319 213.814 63.7806C213.868 63.9293 213.957 64.0626 214.074 64.1691C214.317 64.3216 214.601 64.3961 214.888 64.3824C215.088 64.3788 215.288 64.351 215.481 64.2994C215.664 64.2624 215.837 64.1855 215.986 64.0742L215.832 65.1942C215.628 65.2954 215.41 65.3634 215.185 65.3957C214.906 65.4411 214.624 65.4629 214.341 65.4608C214.117 65.4603 213.894 65.4344 213.676 65.3838C213.462 65.331 213.26 65.2363 213.083 65.1053C212.887 64.96 212.729 64.7713 212.619 64.5542C212.487 64.2773 212.423 63.9722 212.435 63.6654C212.44 63.4666 212.459 63.2685 212.495 63.0728L213.498 57.4197H211.622L211.836 56.3412H213.67L214.116 53.7932H215.41L214.965 56.3412H217.459L217.227 57.4256Z" fill="white"/>
<path d="M219.792 57.3902C219.852 56.9952 219.893 56.6475 219.917 56.3473H221.152C221.124 56.5922 221.093 56.8628 221.057 57.1591C221.022 57.4554 220.982 57.7003 220.938 57.8939H220.98C221.305 57.3779 221.741 56.9406 222.257 56.614C222.776 56.2847 223.381 56.1137 223.996 56.1221C224.163 56.1221 224.311 56.1221 224.442 56.1221C224.578 56.1366 224.713 56.1624 224.846 56.1992L224.537 57.4317C224.421 57.3945 224.302 57.3687 224.181 57.3547C224.005 57.33 223.829 57.3182 223.652 57.3191C223.3 57.3201 222.952 57.3864 222.625 57.5147C222.28 57.6454 221.966 57.8473 221.704 58.1072C221.402 58.4182 221.154 58.7765 220.968 59.1679C220.736 59.6601 220.576 60.1829 220.493 60.7204L219.68 65.3484H218.385L219.62 58.3087C219.691 58.0835 219.749 57.7774 219.792 57.3902Z" fill="white"/>
<path d="M228.842 63.9499H228.877L233.283 56.3532H234.732L227.898 67.683C227.538 68.2968 227.097 68.8589 226.585 69.3541C226.129 69.7747 225.526 70.0002 224.905 69.9822C224.534 69.9837 224.164 69.946 223.801 69.8696L223.996 68.6845C224.268 68.785 224.556 68.8372 224.846 68.8386C225.244 68.8445 225.63 68.6958 225.92 68.4238C226.277 68.0759 226.579 67.6763 226.817 67.2386L227.939 65.3483L226.045 56.3413H227.399L228.842 63.9499Z" fill="white"/>
<path d="M242.837 56.3473C242.81 56.5922 242.778 56.8628 242.742 57.1591C242.701 57.4554 242.665 57.6983 242.624 57.8939H242.665C242.999 57.3545 243.462 56.9065 244.013 56.5902C244.553 56.2747 245.169 56.1109 245.795 56.1162C246.627 56.0652 247.448 56.3298 248.093 56.8569C248.369 57.1126 248.586 57.4253 248.728 57.7733C248.871 58.1213 248.936 58.4961 248.918 58.8716C248.928 59.0255 248.928 59.1799 248.918 59.3338C248.918 59.4879 248.896 59.6558 248.853 59.8375L247.855 65.3721H246.555L247.445 60.3767C247.519 60.002 247.557 59.621 247.558 59.239C247.587 58.7049 247.43 58.1773 247.113 57.7457C246.91 57.5421 246.664 57.3867 246.392 57.2913C246.121 57.1959 245.831 57.1629 245.545 57.1946C245.186 57.197 244.831 57.2695 244.5 57.408C244.136 57.5619 243.805 57.7853 243.526 58.0657C243.202 58.3905 242.932 58.7645 242.725 59.1738C242.476 59.668 242.306 60.1978 242.22 60.7441L241.406 65.3721H240.112L241.347 58.3324C241.399 58.0875 241.454 57.7734 241.513 57.3902C241.573 57.007 241.614 56.6594 241.638 56.3473H242.837Z" fill="white"/>
<path d="M252.522 61.2063C252.522 61.2833 252.522 61.3603 252.522 61.4314C252.522 61.5025 252.522 61.5677 252.522 61.6329C252.513 62.0388 252.588 62.4422 252.742 62.818C252.885 63.1599 253.096 63.4697 253.361 63.7292C253.626 63.9887 253.94 64.1927 254.286 64.3291C254.652 64.4739 255.043 64.5464 255.438 64.5424C256.087 64.5559 256.728 64.3919 257.29 64.0683C257.784 63.7848 258.217 63.4085 258.567 62.9602L259.381 63.7306C258.884 64.3346 258.256 64.8188 257.546 65.1468C256.848 65.4629 256.091 65.6246 255.325 65.6209C254.773 65.6247 254.224 65.5325 253.704 65.3483C253.221 65.181 252.777 64.9191 252.397 64.578C252.022 64.2302 251.726 63.8057 251.53 63.3336C251.309 62.7984 251.2 62.2236 251.21 61.6447C251.212 60.2137 251.755 58.8361 252.73 57.7871C253.204 57.2911 253.769 56.889 254.393 56.602C255.037 56.2997 255.741 56.1458 256.453 56.1516C256.965 56.1146 257.479 56.1828 257.963 56.352C258.447 56.5212 258.891 56.7878 259.268 57.1353C259.589 57.4749 259.84 57.8753 260.004 58.3129C260.168 58.7505 260.243 59.2165 260.224 59.6833C260.224 59.8374 260.212 60.0725 260.188 60.3885C260.166 60.6781 260.12 60.9655 260.052 61.2477L252.522 61.2063ZM258.84 60.2404C258.84 60.1396 258.84 60.027 258.84 59.9026C258.84 59.7782 258.84 59.6656 258.84 59.5648C258.852 59.2526 258.802 58.9411 258.693 58.6482C258.584 58.3554 258.418 58.0869 258.205 57.8582C257.955 57.6241 257.659 57.4442 257.336 57.3299C257.013 57.2157 256.67 57.1696 256.328 57.1946C255.442 57.1876 254.584 57.5108 253.923 58.1012C253.609 58.3829 253.338 58.7105 253.122 59.073C252.903 59.4399 252.747 59.8404 252.659 60.2581L258.84 60.2404Z" fill="white"/>
<path d="M263.804 56.3473L264.398 63.6773H264.434L268.258 56.3473H269.493L270.556 63.6773H270.615L274.231 56.3473H275.621L271.001 65.3721H269.612L268.584 58.0598H268.543L264.772 65.3721H263.4L262.48 56.3473H263.804Z" fill="white"/>
<path d="M282.455 58.3323C282.266 57.9897 281.984 57.7065 281.642 57.5146C281.247 57.2932 280.8 57.1826 280.347 57.1946C280.104 57.1959 279.861 57.2217 279.623 57.2716C279.38 57.3196 279.146 57.4034 278.928 57.5205C278.722 57.6312 278.543 57.7872 278.406 57.9768C278.266 58.1782 278.195 58.4193 278.204 58.6642C278.196 58.8689 278.239 59.0725 278.329 59.2567C278.416 59.4143 278.537 59.5501 278.685 59.6537C278.858 59.7735 279.045 59.8711 279.243 59.9441C279.461 60.0271 279.712 60.108 279.997 60.1871C280.734 60.3687 281.425 60.6994 282.028 61.1589C282.263 61.3667 282.448 61.6251 282.568 61.9145C282.688 62.204 282.741 62.517 282.723 62.8299C282.734 63.2728 282.621 63.7101 282.396 64.0921C282.184 64.4368 281.901 64.7319 281.565 64.9572C281.222 65.1856 280.843 65.3521 280.442 65.4491C280.045 65.55 279.636 65.6017 279.225 65.6031C278.492 65.6093 277.765 65.4682 277.087 65.1883C276.449 64.9316 275.906 64.4846 275.532 63.9084L276.654 63.1736C276.897 63.5695 277.236 63.8977 277.64 64.1276C278.102 64.3982 278.63 64.5357 279.166 64.5247C279.445 64.5244 279.724 64.4946 279.997 64.4358C280.251 64.3833 280.496 64.2913 280.721 64.1632C280.928 64.0447 281.104 63.878 281.232 63.6773C281.365 63.4663 281.433 63.2212 281.428 62.9721C281.435 62.7542 281.383 62.5385 281.279 62.3469C281.174 62.1554 281.021 61.9949 280.834 61.8818C280.323 61.5718 279.775 61.3288 279.201 61.1589C278.932 61.068 278.661 60.9653 278.388 60.8507C278.121 60.7369 277.872 60.583 277.652 60.3945C277.433 60.2061 277.253 59.9765 277.123 59.7189C276.98 59.4195 276.911 59.0904 276.921 58.759C276.913 58.3415 277.024 57.9303 277.242 57.5738C277.45 57.2433 277.727 56.9622 278.055 56.7502C278.397 56.5319 278.772 56.3717 279.166 56.2761C279.57 56.1744 279.984 56.1226 280.401 56.122C281.045 56.1103 281.684 56.2482 282.265 56.525C282.765 56.7515 283.18 57.1287 283.453 57.6035L282.455 58.3323Z" fill="white"/>
<path d="M279.849 24.9056C279.987 24.4295 280.186 23.9733 280.442 23.5486C280.936 22.7083 281.637 22.0084 282.479 21.5161C282.903 21.2613 283.358 21.0622 283.833 20.9235C284.82 20.6526 285.862 20.6526 286.849 20.9235C287.326 21.0615 287.783 21.2607 288.209 21.5161C289.051 22.0084 289.752 22.7083 290.246 23.5486C290.502 23.9734 290.701 24.4296 290.84 24.9056C291.112 25.8906 291.112 26.9308 290.84 27.9158C290.44 29.337 289.504 30.548 288.227 31.2934C287.801 31.5488 287.344 31.748 286.867 31.886C285.88 32.1569 284.838 32.1569 283.851 31.886C283.376 31.7473 282.921 31.5482 282.497 31.2934C281.219 30.549 280.282 29.3376 279.884 27.9158C279.613 26.9307 279.613 25.8907 279.884 24.9056H279.849ZM281.036 28.2773C281.265 28.8376 281.599 29.3487 282.022 29.7824C282.442 30.2107 282.943 30.5528 283.494 30.7897C284.07 31.0374 284.691 31.1625 285.317 31.1571C285.946 31.1617 286.569 31.0367 287.146 30.7897C287.696 30.5439 288.192 30.1937 288.607 29.7587C289.032 29.3254 289.368 28.8143 289.599 28.2536C289.843 27.6617 289.966 27.027 289.961 26.387C289.964 25.5366 289.747 24.6998 289.331 23.9574C289.134 23.6048 288.89 23.28 288.607 22.9916C288.325 22.704 288.008 22.4531 287.663 22.2449C287.314 22.0354 286.939 21.874 286.547 21.765C285.727 21.5394 284.861 21.5394 284.041 21.765C283.651 21.8747 283.277 22.0361 282.93 22.2449C282.588 22.4523 282.275 22.7033 281.998 22.9916C281.718 23.2815 281.477 23.6061 281.28 23.9574C281.077 24.3194 280.921 24.7057 280.817 25.107C280.708 25.5251 280.654 25.9552 280.656 26.387C280.657 27.0365 280.788 27.6793 281.042 28.2773H281.036ZM284.456 29.8357H282.812V22.956H285.282C286.022 22.8979 286.761 23.0787 287.39 23.4716C287.611 23.6468 287.787 23.872 287.903 24.1286C288.02 24.3851 288.074 24.6656 288.061 24.947C288.081 25.3889 287.947 25.8239 287.681 26.1782C287.416 26.5326 287.036 26.7843 286.606 26.8907C286.719 26.9532 286.818 27.0378 286.897 27.1395C286.982 27.2509 287.059 27.3677 287.128 27.4892L288.518 29.8594H286.933C286.835 29.8685 286.738 29.8492 286.651 29.804C286.565 29.7588 286.493 29.6895 286.446 29.6046L285.341 27.584C285.296 27.5176 285.237 27.4611 285.169 27.418C285.079 27.374 284.978 27.3536 284.878 27.3588H284.45L284.456 29.8357ZM285.139 26.1677C285.357 26.1724 285.574 26.1505 285.787 26.1025C285.933 26.0712 286.07 26.004 286.184 25.907C286.279 25.8209 286.347 25.71 286.38 25.587C286.418 25.444 286.436 25.2964 286.434 25.1485C286.436 25.0068 286.42 24.8655 286.386 24.7278C286.365 24.6142 286.312 24.5091 286.232 24.4256C286.13 24.3369 286.008 24.2757 285.876 24.2478C285.681 24.2036 285.481 24.1837 285.282 24.1886H284.45V26.1618L285.139 26.1677Z" fill="white"/>
<path d="M10.4988 56.6672C10.1307 28.9054 32.9205 25.4923 38.0686 26.5885C38.6624 26.7129 39.2562 26.8078 39.85 26.8789C33.7577 24.8345 25.599 19.928 26.1928 8.34334C26.1928 8.34334 40.4438 9.62923 45.396 25.0241C47.5693 15.8571 51.049 3.58503 54.1426 3.58503C57.9548 3.58503 55.7815 6.86192 55.7815 6.86192C55.7815 6.86192 50.4374 19.1162 49.5407 26.7011C50.5858 26.5885 50.188 26.6004 50.188 26.6004C55.7637 25.4152 63.7324 25.5278 70.1038 30.0135V0H0.0302734V69.9585H12.2743C11.1182 65.6215 10.5216 61.155 10.4988 56.6672Z" fill="white"/>
</g>
<defs>
<clipPath id="clip0">
<rect width="291" height="70" fill="white"/>
</clipPath>
</defs>
</svg>
