<svg width="145" height="35" viewBox="0 0 145 35" fill="none" xmlns="http://www.w3.org/2000/svg">
<g clip-path="url(#clip0)">
<path d="M50.9205 23.7678H46.935V22.7012L47.8759 22.3635L47.58 21.4479H44.7988L44.4852 22.3368L45.4616 22.6894V23.7678H41.6714V22.7012L42.5856 22.3486L45.3432 14.9415L47.3492 14.903L50.0447 22.3338L50.9323 22.6864L50.9205 23.7678ZM46.219 17.1281L45.2278 20.091H47.1569L46.219 17.1281Z" fill="#9ECD51"/>
<path d="M54.4146 17.8629C54.4146 17.8629 55.5981 16.897 56.7195 16.897C57.9356 16.897 58.625 17.7622 58.625 19.131V22.4583L59.5126 22.7724V23.7679H56.0568V22.7635L56.7461 22.4494V19.4688C56.7461 18.891 56.4207 18.4644 55.894 18.4644C55.1159 18.4644 54.5537 19.1784 54.5537 19.1784V22.4553L55.2431 22.7694V23.7679H51.6719V22.7635L52.6749 22.4494V18.3755L51.6719 18.0614V17.057L54.3348 16.9948L54.4146 17.8629Z" fill="#9ECD51"/>
<path d="M64.2792 23.1071C64.0315 23.3578 63.7366 23.5569 63.4115 23.6926C63.0865 23.8284 62.7378 23.8983 62.3856 23.8982C60.631 23.8982 59.8174 22.6183 59.8174 20.5473C59.8174 18.177 60.9447 16.8704 63.2377 16.8704C63.5548 16.8792 63.8701 16.9209 64.1786 16.9948V15.4008L63.1756 15.149V14.1446L66.0574 14.0438V22.4287L67.0604 22.6805V23.6849L64.3975 23.7738L64.2792 23.1071ZM64.1786 18.5651C63.8694 18.4362 63.5371 18.3717 63.2022 18.3755C62.1371 18.3755 61.7613 19.1903 61.7613 20.4495C61.7613 21.7087 62.1134 22.3961 62.9655 22.3961C63.2109 22.3852 63.45 22.3144 63.6619 22.19C63.8738 22.0655 64.0522 21.8912 64.1816 21.682L64.1786 18.5651Z" fill="#9ECD51"/>
<path d="M68.0015 22.7072L68.9423 22.3309V16.4319L68.0015 16.0645V14.9979L71.0105 14.9356L74.3953 20.7339V16.4319L73.4781 16.0645V14.9979L77.0494 14.9356V16.0645L76.1085 16.4408V23.7679H74.0166L70.6584 18.0822V22.325L71.6348 22.7012V23.7679H68.0015V22.7072Z" fill="#9ECD51"/>
<path d="M83.9046 20.2599C83.9046 22.5176 82.588 23.8983 80.5583 23.8983C78.5285 23.8983 77.3628 22.8317 77.3628 20.4466C77.3628 18.1859 78.7031 16.8704 80.7476 16.8704C82.7921 16.8704 83.9046 18.1 83.9046 20.2599ZM79.3037 20.3844C79.3037 21.765 79.7061 22.3932 80.6204 22.3932C81.5346 22.3932 81.9607 21.8273 81.9607 20.3192C81.9607 19.0392 81.5849 18.3726 80.6825 18.3726C79.7801 18.3726 79.3067 18.8792 79.3067 20.3844H79.3037Z" fill="#9ECD51"/>
<path d="M92.0532 18.0614V17.057L95.2605 16.9948V18.0614L94.5947 18.2125L92.9171 23.7679H90.9998L90.0087 20.568L89.7838 19.5903L89.4702 20.9591L88.5677 23.7679H86.6623L84.958 18.2333L84.4077 18.0585V17.0541L87.6919 16.9919V18.0585L86.902 18.2096L87.7304 21.7354L89.0707 17.2081L90.7247 16.9326L92.0916 21.7383L92.8313 18.2481L92.0532 18.0614Z" fill="#9ECD51"/>
<path d="M98.6303 20.3843C98.6303 21.8272 99.0445 22.3931 100.272 22.3931C101.601 22.3931 101.888 21.6791 101.888 20.1976V16.4319L100.906 16.0645V14.9979L104.752 14.9356V16.0645L103.811 16.4408V20.2065C103.811 22.6301 102.885 23.9338 100.19 23.9338C97.6716 23.9338 96.6686 22.8168 96.6686 20.3932V16.4319L95.7603 16.0645V14.9979L99.6066 14.9356V16.0645L98.6303 16.4408V20.3843Z" fill="#9ECD51"/>
<path d="M105.64 22.7072L106.581 22.3309V16.4052L105.64 16.029V14.986L109.462 14.9238V16.029L108.521 16.4052V18.5651H109.374L111.465 14.989L113.785 14.9268V16.0319L112.602 16.3845L110.965 19.1162L113.297 22.328L114.238 22.7042V23.7679H110.412V22.7013L111.164 22.325L109.448 19.9547H108.533V22.325L109.474 22.7013V23.7679H105.64V22.7072Z" fill="#9ECD51"/>
<path d="M117.667 17.8629C117.667 17.8629 118.851 16.897 119.972 16.897C121.188 16.897 121.877 17.7622 121.877 19.131V22.4583L122.765 22.7724V23.7679H119.309V22.7635L119.999 22.4494V19.4688C119.999 18.891 119.673 18.4644 119.146 18.4644C118.368 18.4644 117.806 19.1784 117.806 19.1784V22.4553L118.496 22.7694V23.7679H114.924V22.7635L115.927 22.4494V18.3755L114.924 18.0614V17.057L117.587 16.9948L117.667 17.8629Z" fill="#9ECD51"/>
<path d="M129.798 20.2599C129.798 22.5176 128.481 23.8983 126.451 23.8983C124.422 23.8983 123.256 22.8317 123.256 20.4466C123.256 18.1859 124.596 16.8704 126.641 16.8704C128.685 16.8704 129.798 18.1 129.798 20.2599ZM125.197 20.3844C125.197 21.765 125.599 22.3932 126.513 22.3932C127.428 22.3932 127.854 21.8273 127.854 20.3192C127.854 19.0392 127.478 18.3726 126.576 18.3726C125.673 18.3726 125.2 18.8792 125.2 20.3844H125.197Z" fill="#9ECD51"/>
<path d="M137.92 18.0614V17.057L141.127 16.9948V18.0614L140.464 18.2125L138.799 23.7679H136.881L135.89 20.568L135.665 19.5903L135.352 20.9591L134.437 23.7679H132.532L130.828 18.2333L130.277 18.0585V17.0541L133.562 16.9919V18.0585L132.772 18.2096L133.6 21.7354L134.931 17.2081L136.585 16.9326L137.952 21.7383L138.692 18.2481L137.92 18.0614Z" fill="#9ECD51"/>
<path d="M43.42 28.9084C43.496 28.7857 43.5897 28.6748 43.6981 28.5795C43.8172 28.4746 43.9483 28.3841 44.0886 28.3099C44.237 28.2311 44.3938 28.1695 44.5561 28.1262C44.7259 28.0806 44.901 28.0577 45.0769 28.0581C45.3611 28.0536 45.6438 28.1008 45.9112 28.1974C46.1494 28.2854 46.3669 28.4215 46.5503 28.5973C46.7302 28.7712 46.8714 28.9813 46.9645 29.2136C47.064 29.4653 47.1132 29.734 47.1095 30.0047C47.1124 30.3776 47.0441 30.7477 46.9083 31.095C46.7818 31.4237 46.594 31.7253 46.355 31.9839C46.1176 32.2346 45.8331 32.436 45.5177 32.5764C45.1867 32.7257 44.8274 32.8016 44.4644 32.7986C44.1442 32.8004 43.8284 32.7241 43.5442 32.5764C43.2631 32.4332 43.035 32.2038 42.8933 31.9216H42.8726L42.3223 35.003H41.6772L42.8903 28.1885H43.5353L43.3992 28.9203L43.42 28.9084ZM46.4349 30.0491C46.4361 29.8567 46.4051 29.6654 46.3432 29.4832C46.285 29.3106 46.1913 29.1521 46.068 29.0181C45.9425 28.8892 45.7913 28.7883 45.6242 28.7218C45.4317 28.6435 45.2254 28.6052 45.0177 28.6092C44.7446 28.6072 44.4746 28.667 44.2277 28.784C43.9852 28.8989 43.7687 29.0622 43.5916 29.264C43.4092 29.4715 43.2658 29.7104 43.1685 29.9691C43.0652 30.2396 43.013 30.5269 43.0146 30.8165C43.0112 31.0185 43.0453 31.2195 43.1152 31.4091C43.1805 31.583 43.2813 31.7414 43.4111 31.8742C43.5414 32.0042 43.6977 32.1051 43.8697 32.1705C44.0585 32.2431 44.2592 32.2793 44.4614 32.2772C44.7395 32.2808 45.0147 32.2211 45.2662 32.1024C45.5037 31.9888 45.7152 31.8274 45.8876 31.6283C46.0644 31.422 46.2 31.1836 46.287 30.9261C46.386 30.6444 46.436 30.3478 46.4349 30.0491Z" fill="#565656"/>
<path d="M48.8077 28.6951C48.8373 28.4976 48.858 28.3238 48.8698 28.1736H49.4852C49.4714 28.2961 49.4556 28.4314 49.4379 28.5796C49.4201 28.7277 49.4004 28.8502 49.3787 28.947H49.3994C49.5614 28.689 49.7787 28.4704 50.0356 28.307C50.2945 28.1423 50.5958 28.0569 50.9025 28.0611C50.9853 28.0611 51.0593 28.0611 51.1244 28.0611C51.1924 28.0683 51.2597 28.0812 51.3256 28.0996L51.1717 28.7159C51.1139 28.6973 51.0545 28.6844 50.9942 28.6773C50.907 28.665 50.819 28.6591 50.7309 28.6596C50.5557 28.6601 50.3821 28.6932 50.219 28.7573C50.047 28.8227 49.8908 28.9237 49.7604 29.0536C49.61 29.2091 49.486 29.3883 49.3935 29.584C49.2778 29.83 49.1981 30.0914 49.1568 30.3602L48.7515 32.6742H48.1064L48.7219 29.1543C48.7515 29.0418 48.7801 28.8887 48.8077 28.6951Z" fill="#565656"/>
<path d="M53.6012 32.8046C53.3156 32.8071 53.0319 32.758 52.7638 32.6594C52.5198 32.5708 52.2956 32.4349 52.104 32.2594C51.9188 32.0869 51.7726 31.8768 51.675 31.6431C51.57 31.3907 51.5177 31.1195 51.5212 30.8461C51.5192 30.4783 51.5864 30.1135 51.7194 29.7706C51.845 29.4415 52.0329 29.1397 52.2727 28.8818C52.5129 28.6302 52.8005 28.4288 53.1189 28.2892C53.4588 28.1384 53.8271 28.0626 54.1988 28.067C54.4873 28.0647 54.7738 28.1139 55.045 28.2122C55.2881 28.2992 55.5107 28.4353 55.6989 28.6121C55.8824 28.7861 56.0284 28.9958 56.128 29.2284C56.233 29.4787 56.2854 29.748 56.2818 30.0195C56.284 30.3921 56.2168 30.7619 56.0836 31.1098C55.96 31.4378 55.7723 31.7377 55.5315 31.9921C55.2907 32.2465 55.0016 32.4502 54.6811 32.5912C54.3405 32.7389 53.9722 32.8116 53.6012 32.8046ZM55.6042 30.0491C55.6064 29.8535 55.5743 29.6589 55.5096 29.4743C55.4453 29.3016 55.3443 29.1449 55.2137 29.0151C55.0837 28.8861 54.9286 28.7853 54.758 28.7188C54.5699 28.6435 54.3689 28.6052 54.1663 28.6062C53.8965 28.6031 53.6299 28.664 53.3881 28.784C53.1525 28.9017 52.9432 29.066 52.7727 29.2669C52.5962 29.476 52.4579 29.7148 52.3644 29.9721C52.2647 30.2433 52.2145 30.5304 52.2165 30.8194C52.2143 31.0151 52.2463 31.2096 52.3111 31.3942C52.3754 31.567 52.4763 31.7237 52.607 31.8535C52.7364 31.9818 52.8904 32.0826 53.0597 32.1498C53.2476 32.226 53.4487 32.2643 53.6515 32.2624C53.926 32.2659 54.1976 32.2051 54.4444 32.0846C54.6806 31.9677 54.8909 31.8045 55.0628 31.6046C55.2393 31.3976 55.3757 31.1595 55.4652 30.9024C55.5605 30.6282 55.6075 30.3395 55.6042 30.0491Z" fill="#565656"/>
<path d="M57.2579 30.855C57.2556 30.4824 57.3228 30.1126 57.4561 29.7647C57.5796 29.4376 57.7666 29.1383 58.0063 28.884C58.246 28.6297 58.5336 28.4255 58.8526 28.2833C59.1836 28.1339 59.5429 28.058 59.906 28.0611C60.2261 28.0593 60.542 28.1355 60.8261 28.2833C61.1073 28.4265 61.3353 28.6559 61.4771 28.9381H61.4948L62.1221 25.3975H62.7671L61.4771 32.689H60.832L60.9681 31.9453H60.9622C60.791 32.1934 60.5626 32.3967 60.2965 32.5379C59.9946 32.7096 59.6525 32.7975 59.3053 32.7927C59.0211 32.7972 58.7384 32.75 58.471 32.6535C58.2327 32.5655 58.0152 32.4294 57.8319 32.2535C57.652 32.0796 57.5108 31.8695 57.4176 31.6372C57.3143 31.3893 57.26 31.1237 57.2579 30.855ZM57.9325 30.8135C57.9303 31.008 57.9614 31.2014 58.0242 31.3854C58.0833 31.5558 58.1769 31.7122 58.2994 31.8446C58.4248 31.9735 58.5761 32.0745 58.7432 32.1409C58.9357 32.2191 59.142 32.2574 59.3497 32.2535C59.6228 32.2554 59.8928 32.1957 60.1397 32.0787C60.3821 31.9636 60.5986 31.8003 60.7758 31.5987C61.1578 31.1721 61.3685 30.6191 61.3676 30.0462C61.371 29.8441 61.3369 29.6432 61.267 29.4536C61.2015 29.2797 61.1008 29.1214 60.9711 28.9884C60.8399 28.858 60.6826 28.7571 60.5095 28.6921C60.3207 28.6199 60.12 28.5837 59.9178 28.5855C59.6397 28.5817 59.3645 28.6415 59.113 28.7603C58.8755 28.8738 58.664 29.0352 58.4917 29.2343C58.3148 29.4406 58.1792 29.679 58.0922 29.9365C57.9892 30.2175 57.9351 30.5142 57.9325 30.8135Z" fill="#565656"/>
<path d="M66.4271 32.686C66.441 32.5636 66.4567 32.4283 66.4745 32.2801C66.4922 32.132 66.512 32.0095 66.5337 31.9127H66.513C66.3475 32.1822 66.1177 32.4062 65.8443 32.5646C65.5797 32.7202 65.2783 32.802 64.9714 32.8016C64.5582 32.8268 64.1506 32.6957 63.8294 32.4342C63.6919 32.307 63.584 32.1511 63.5134 31.9776C63.4429 31.804 63.4113 31.617 63.421 31.4298C63.4163 31.3528 63.4163 31.2757 63.421 31.1987C63.421 31.1217 63.4319 31.0377 63.4536 30.9469L63.9507 28.1796H64.5986L64.1548 30.6772C64.1176 30.8646 64.0978 31.0551 64.0956 31.2461C64.0803 31.5124 64.1588 31.7756 64.3176 31.9898C64.4191 32.0898 64.5416 32.1659 64.6762 32.2125C64.8108 32.2592 64.9541 32.2752 65.0957 32.2594C65.2736 32.2581 65.4495 32.2218 65.6135 32.1527C65.7942 32.0769 65.9589 31.9673 66.0987 31.8298C66.2609 31.6691 66.3959 31.483 66.4982 31.2787C66.6211 31.0314 66.705 30.7666 66.7467 30.4935L67.1757 28.1825H67.8207L67.2053 31.7024C67.1797 31.8248 67.152 31.9819 67.1225 32.1735C67.0929 32.3651 67.0721 32.5359 67.0603 32.686H66.4271Z" fill="#565656"/>
<path d="M72.59 29.1958C72.5056 29.0139 72.3658 28.8635 72.1906 28.7662C71.9931 28.6515 71.768 28.5931 71.5397 28.5973C71.2636 28.5947 70.9906 28.6545 70.7408 28.7721C70.4997 28.8864 70.285 29.0499 70.1106 29.2521C69.9309 29.46 69.7906 29.699 69.6963 29.9572C69.595 30.2312 69.5439 30.5213 69.5455 30.8135C69.5442 31.0093 69.5773 31.2039 69.6431 31.3883C69.7074 31.561 69.8083 31.7177 69.939 31.8475C70.07 31.9767 70.2261 32.0775 70.3976 32.1438C70.5934 32.2214 70.8025 32.2596 71.013 32.2564C71.2757 32.2623 71.5361 32.2065 71.7734 32.0934C71.9868 31.9878 72.1793 31.8443 72.3415 31.6698L72.7557 32.0253C72.5303 32.2574 72.2659 32.4479 71.9746 32.5882C71.6572 32.7328 71.3113 32.8037 70.9627 32.7956C70.6678 32.8001 70.3745 32.753 70.0958 32.6564C69.8508 32.5706 69.6255 32.4367 69.433 32.2623C69.2484 32.0917 69.1039 31.8823 69.0099 31.649C68.9105 31.3973 68.8613 31.1286 68.8649 30.8579C68.8624 30.4855 68.9286 30.1159 69.0602 29.7676C69.1847 29.4386 69.3716 29.1367 69.6106 28.8788C69.8523 28.625 70.1433 28.4233 70.4656 28.2862C70.8148 28.1351 71.1918 28.0594 71.5722 28.064C71.8939 28.062 72.2128 28.1245 72.5101 28.2477C72.7921 28.3625 73.0254 28.572 73.1699 28.8402L72.59 29.1958Z" fill="#565656"/>
<path d="M74.2945 30.6032C74.2945 30.6417 74.2945 30.6802 74.2945 30.7157C74.2945 30.7513 74.2945 30.7839 74.2945 30.8165C74.29 31.0194 74.3273 31.2211 74.4039 31.409C74.4752 31.5801 74.5801 31.735 74.7122 31.8648C74.8443 31.9946 75.0011 32.0965 75.1732 32.1646C75.3559 32.237 75.5508 32.2732 75.7472 32.2712C76.0707 32.278 76.39 32.196 76.6703 32.0342C76.9161 31.8924 77.1322 31.7043 77.3065 31.4802L77.7118 31.8653C77.4643 32.1674 77.1518 32.4095 76.7976 32.5734C76.4501 32.7315 76.0726 32.8123 75.691 32.8105C75.4099 32.8084 75.1313 32.7563 74.8685 32.6564C74.628 32.5727 74.4067 32.4417 74.2175 32.2712C74.0306 32.0973 73.8832 31.8851 73.7856 31.649C73.6753 31.3814 73.621 31.0941 73.6258 30.8046C73.6267 30.0891 73.8972 29.4003 74.3832 28.8758C74.6197 28.6278 74.9007 28.4268 75.2117 28.2832C75.5327 28.1321 75.8836 28.0551 76.2384 28.0581C76.4933 28.0396 76.7493 28.0737 76.9906 28.1583C77.2318 28.2429 77.4531 28.3762 77.6408 28.5499C77.8011 28.7197 77.9258 28.9199 78.0076 29.1387C78.0894 29.3575 78.1267 29.5905 78.1172 29.8239C78.1172 29.901 78.1103 30.0185 78.0965 30.1765C78.0855 30.3213 78.0627 30.465 78.0284 30.6061L74.2945 30.6032ZM77.4426 30.1202C77.4426 30.0698 77.4426 30.0135 77.4426 29.9513C77.4426 29.8891 77.4426 29.8328 77.4426 29.7824C77.4486 29.6263 77.4237 29.4706 77.3694 29.3241C77.315 29.1777 77.2323 29.0435 77.126 28.9292C77.0016 28.8121 76.8542 28.7221 76.6933 28.665C76.5323 28.6079 76.3613 28.5848 76.191 28.5973C75.7492 28.5938 75.3219 28.7554 74.9927 29.0506C74.8357 29.1913 74.701 29.3552 74.5933 29.5365C74.4844 29.72 74.4064 29.9202 74.3625 30.1291L77.4426 30.1202Z" fill="#565656"/>
<path d="M82.1528 32.686H81.5078L82.3067 28.1736H82.9517L82.1528 32.686ZM83.3363 26.4285C83.3377 26.4893 83.327 26.5497 83.3046 26.6062C83.2822 26.6627 83.2487 26.7141 83.2061 26.7574C83.165 26.8015 83.115 26.8365 83.0594 26.86C83.0038 26.8834 82.9439 26.8949 82.8836 26.8937C82.7682 26.8963 82.6562 26.855 82.57 26.7781C82.5264 26.7381 82.4921 26.689 82.4696 26.6342C82.4471 26.5794 82.4369 26.5203 82.4398 26.4611C82.439 26.3375 82.4871 26.2185 82.5736 26.1302C82.6601 26.042 82.7779 25.9916 82.9014 25.99C82.9596 25.9883 83.0175 25.9987 83.0715 26.0206C83.1255 26.0424 83.1744 26.0753 83.215 26.1171C83.2556 26.1589 83.2871 26.2087 83.3075 26.2633C83.3278 26.3179 83.3367 26.3762 83.3334 26.4344L83.3363 26.4285Z" fill="#565656"/>
<path d="M85.2922 28.1736C85.2783 28.2961 85.2626 28.4314 85.2448 28.5795C85.2271 28.7276 85.2073 28.8501 85.1856 28.9469H85.2063C85.3729 28.6773 85.6037 28.4533 85.878 28.2951C86.1471 28.1373 86.4538 28.0554 86.7656 28.0581C87.1803 28.0326 87.5892 28.1649 87.9107 28.4284C88.0483 28.5562 88.1564 28.7126 88.2274 28.8866C88.2984 29.0606 88.3307 29.248 88.3219 29.4358C88.3267 29.5127 88.3267 29.5899 88.3219 29.6669C88.3219 29.7439 88.3111 29.8279 88.2894 29.9187L87.7923 32.686H87.1443L87.5882 30.1883C87.6249 30.0009 87.6437 29.8104 87.6444 29.6195C87.6587 29.3524 87.5803 29.0886 87.4225 28.8728C87.3214 28.771 87.1986 28.6933 87.0634 28.6456C86.9281 28.5979 86.7839 28.5814 86.6414 28.5973C86.4625 28.5985 86.2856 28.6347 86.1206 28.704C85.939 28.7808 85.7742 28.8926 85.6354 29.0328C85.4739 29.1953 85.3391 29.3823 85.2359 29.5869C85.112 29.834 85.0271 30.0988 84.9844 30.372L84.5791 32.686H83.9341L84.5495 29.1662C84.5751 29.0437 84.6028 28.8867 84.6323 28.6951C84.6619 28.5035 84.6826 28.3296 84.6945 28.1736H85.2922Z" fill="#565656"/>
<path d="M89.4434 30.855C89.4412 30.4824 89.5084 30.1126 89.6416 29.7647C89.7651 29.4376 89.9521 29.1383 90.1918 28.884C90.4315 28.6297 90.7192 28.4255 91.0382 28.2833C91.3692 28.1339 91.7285 28.0581 92.0915 28.0611C92.4117 28.0593 92.7275 28.1355 93.0117 28.2833C93.2928 28.4265 93.5209 28.6559 93.6626 28.9381H93.6833L94.3106 25.3975H94.9556L93.6656 32.689H93.0205L93.1566 31.9453H93.1359C92.9647 32.1934 92.7363 32.3967 92.4702 32.5379C92.1683 32.7096 91.8262 32.7975 91.479 32.7927C91.1958 32.7969 90.9141 32.7497 90.6476 32.6534C90.4083 32.5659 90.1897 32.4297 90.0056 32.2535C89.8257 32.0796 89.6845 31.8695 89.5914 31.6372C89.4921 31.3885 89.4418 31.1229 89.4434 30.855ZM90.118 30.8135C90.1159 31.008 90.1469 31.2014 90.2097 31.3854C90.2688 31.5558 90.3625 31.7122 90.4849 31.8446C90.6104 31.9734 90.7616 32.0744 90.9287 32.1409C91.1212 32.219 91.3275 32.2573 91.5352 32.2535C91.8083 32.2554 92.0784 32.1956 92.3252 32.0787C92.5676 31.9636 92.784 31.8002 92.9614 31.5987C93.3431 31.1719 93.5538 30.619 93.5531 30.0462C93.5565 29.8441 93.5224 29.6432 93.4525 29.4536C93.387 29.2797 93.2863 29.1214 93.1566 28.9884C93.0255 28.858 92.8682 28.7571 92.6951 28.6921C92.5062 28.6199 92.3055 28.5837 92.1033 28.5855C91.8253 28.5817 91.55 28.6415 91.2985 28.7603C91.061 28.8737 90.8495 29.0351 90.6772 29.2343C90.5004 29.4406 90.3648 29.679 90.2778 29.9365C90.1746 30.2175 90.1206 30.5142 90.118 30.8135Z" fill="#565656"/>
<path d="M98.6126 32.686C98.6245 32.5636 98.6403 32.4283 98.66 32.2801C98.6797 32.132 98.6994 32.0095 98.7192 31.9127H98.7014C98.5358 32.1821 98.3061 32.4061 98.0327 32.5646C97.7681 32.7202 97.4667 32.802 97.1599 32.8016C96.7467 32.8268 96.339 32.6957 96.0178 32.4342C95.8803 32.307 95.7724 32.1511 95.7019 31.9776C95.6313 31.804 95.5998 31.617 95.6095 31.4298C95.6048 31.3528 95.6048 31.2757 95.6095 31.1987C95.6095 31.1217 95.6203 31.0377 95.642 30.9469L96.1391 28.1796H96.7871L96.3433 30.6772C96.3061 30.8646 96.2862 31.0551 96.2841 31.2461C96.269 31.5123 96.3475 31.7755 96.506 31.9898C96.6076 32.0898 96.7301 32.1659 96.8647 32.2125C96.9993 32.2592 97.1426 32.2752 97.2842 32.2594C97.4621 32.2581 97.638 32.2218 97.8019 32.1527C97.9827 32.0769 98.1474 31.9673 98.2872 31.8298C98.4494 31.6691 98.5843 31.4829 98.6866 31.2787C98.8096 31.0314 98.8934 30.7666 98.9351 30.4935L99.3375 28.1796H99.9826L99.3671 31.6994C99.3415 31.8219 99.3139 31.9789 99.2843 32.1705C99.2547 32.3621 99.234 32.533 99.2221 32.6831L98.6126 32.686Z" fill="#565656"/>
<path d="M104.071 29.1662C103.977 28.9948 103.836 28.8533 103.666 28.7573C103.469 28.6466 103.247 28.5913 103.021 28.5973C102.9 28.598 102.779 28.6109 102.66 28.6358C102.539 28.6598 102.423 28.7018 102.314 28.7603C102.211 28.8155 102.122 28.8935 102.054 28.9884C101.984 29.0891 101.949 29.2097 101.953 29.3321C101.949 29.4344 101.97 29.5362 102.015 29.6284C102.058 29.7072 102.119 29.7751 102.193 29.8269C102.279 29.8867 102.372 29.9355 102.471 29.9721C102.579 30.0135 102.704 30.054 102.847 30.0935C103.216 30.1844 103.562 30.3508 103.864 30.5824C103.981 30.6863 104.074 30.8155 104.133 30.9602C104.193 31.105 104.22 31.2615 104.211 31.4179C104.216 31.6394 104.16 31.858 104.048 32.049C103.942 32.2213 103.801 32.3688 103.634 32.4816C103.463 32.5958 103.274 32.679 103.074 32.7275C102.876 32.778 102.672 32.8039 102.468 32.8045C102.102 32.8076 101.74 32.7371 101.403 32.5971C101.085 32.4688 100.814 32.2453 100.627 31.9572L101.187 31.5898C101.307 31.7864 101.475 31.9494 101.675 32.0638C101.905 32.1991 102.168 32.2678 102.435 32.2623C102.575 32.2622 102.713 32.2473 102.849 32.2179C102.976 32.1916 103.098 32.1456 103.21 32.0816C103.314 32.0224 103.401 31.939 103.465 31.8386C103.531 31.7331 103.565 31.6106 103.563 31.4861C103.566 31.3771 103.54 31.2692 103.488 31.1735C103.436 31.0777 103.36 30.9974 103.267 30.9409C103.012 30.7859 102.739 30.6644 102.453 30.5794C102.319 30.534 102.184 30.4826 102.048 30.4254C101.914 30.3684 101.791 30.2915 101.681 30.1972C101.572 30.103 101.482 29.9883 101.417 29.8595C101.346 29.7098 101.312 29.5452 101.317 29.3795C101.313 29.1708 101.368 28.9652 101.477 28.7869C101.58 28.6216 101.718 28.481 101.882 28.3751C102.052 28.266 102.239 28.1859 102.435 28.1381C102.636 28.0872 102.843 28.0613 103.051 28.061C103.372 28.0551 103.69 28.1241 103.98 28.2625C104.229 28.3756 104.436 28.5642 104.571 28.8017L104.071 29.1662Z" fill="#565656"/>
<path d="M108.24 28.7128H107.018L106.545 31.3616C106.527 31.4595 106.518 31.5585 106.515 31.6579C106.504 31.7362 106.513 31.816 106.54 31.8903C106.566 31.9647 106.611 32.0313 106.669 32.0846C106.79 32.1608 106.932 32.1981 107.075 32.1912C107.175 32.1894 107.274 32.1755 107.37 32.1497C107.462 32.1312 107.547 32.0928 107.622 32.0371L107.545 32.5971C107.444 32.6477 107.335 32.6817 107.223 32.6979C107.084 32.7206 106.943 32.7315 106.802 32.7305C106.691 32.7302 106.58 32.7172 106.471 32.6919C106.364 32.6655 106.264 32.6182 106.175 32.5527C106.078 32.48 105.999 32.3857 105.944 32.2771C105.878 32.1387 105.847 31.9861 105.853 31.8327C105.855 31.7333 105.865 31.6343 105.882 31.5364L106.382 28.7099H105.447L105.554 28.1706H106.468L106.69 26.8966H107.335L107.113 28.1706H108.356L108.24 28.7128Z" fill="#565656"/>
<path d="M109.519 28.6951C109.548 28.4976 109.569 28.3238 109.581 28.1736H110.196C110.182 28.2961 110.167 28.4314 110.149 28.5796C110.131 28.7277 110.111 28.8502 110.09 28.947H110.11C110.272 28.6889 110.49 28.4703 110.747 28.307C111.005 28.1423 111.307 28.0569 111.613 28.0611C111.696 28.0611 111.77 28.0611 111.835 28.0611C111.903 28.0683 111.971 28.0812 112.037 28.0996L111.883 28.7159C111.825 28.6973 111.765 28.6844 111.705 28.6773C111.618 28.665 111.53 28.6591 111.442 28.6596C111.267 28.6601 111.093 28.6932 110.93 28.7573C110.758 28.8227 110.602 28.9237 110.471 29.0536C110.321 29.2091 110.197 29.3883 110.104 29.584C109.989 29.83 109.909 30.0915 109.868 30.3602L109.462 32.6742H108.817L109.433 29.1543C109.468 29.0418 109.497 28.8887 109.519 28.6951Z" fill="#565656"/>
<path d="M114.028 31.975H114.045L116.241 28.1766H116.963L113.557 33.8416C113.378 34.1484 113.158 34.4295 112.903 34.6771C112.676 34.8874 112.375 35.0001 112.066 34.9911C111.881 34.9919 111.697 34.973 111.516 34.9348L111.613 34.3423C111.749 34.3926 111.892 34.4186 112.036 34.4193C112.235 34.4223 112.427 34.3479 112.572 34.2119C112.75 34.038 112.9 33.8382 113.019 33.6193L113.578 32.6742L112.634 28.1707H113.309L114.028 31.975Z" fill="#565656"/>
<path d="M121.002 28.1736C120.988 28.2961 120.972 28.4314 120.954 28.5795C120.934 28.7276 120.916 28.8491 120.895 28.9469H120.916C121.082 28.6772 121.313 28.4532 121.587 28.2951C121.857 28.1373 122.163 28.0554 122.475 28.0581C122.89 28.0326 123.299 28.1649 123.62 28.4284C123.758 28.5562 123.866 28.7126 123.937 28.8866C124.008 29.0606 124.04 29.248 124.031 29.4358C124.036 29.5127 124.036 29.5899 124.031 29.6669C124.031 29.7439 124.021 29.8279 123.999 29.9187L123.502 32.686H122.854L123.298 30.1883C123.334 30.0009 123.353 29.8105 123.354 29.6195C123.368 29.3524 123.29 29.0886 123.132 28.8728C123.031 28.771 122.908 28.6933 122.773 28.6456C122.638 28.5979 122.493 28.5814 122.351 28.5973C122.172 28.5985 121.995 28.6347 121.83 28.704C121.648 28.7809 121.484 28.8926 121.345 29.0328C121.183 29.1952 121.048 29.3822 120.945 29.5869C120.821 29.834 120.737 30.0988 120.694 30.372L120.289 32.686H119.644L120.259 29.1662C120.285 29.0437 120.312 28.8867 120.342 28.6951C120.371 28.5035 120.392 28.3296 120.404 28.1736H121.002Z" fill="#565656"/>
<path d="M125.827 30.6032C125.827 30.6417 125.827 30.6802 125.827 30.7158C125.827 30.7513 125.827 30.7839 125.827 30.8165C125.823 31.0195 125.86 31.2212 125.937 31.4091C126.008 31.58 126.113 31.7349 126.245 31.8647C126.377 31.9944 126.534 32.0964 126.706 32.1646C126.888 32.237 127.083 32.2733 127.28 32.2713C127.603 32.278 127.923 32.196 128.203 32.0342C128.449 31.8925 128.665 31.7043 128.839 31.4802L129.244 31.8654C128.997 32.1674 128.684 32.4095 128.33 32.5735C127.983 32.7315 127.605 32.8124 127.224 32.8105C126.948 32.8124 126.675 32.7663 126.416 32.6742C126.175 32.5906 125.954 32.4596 125.765 32.2891C125.578 32.1152 125.431 31.9029 125.333 31.6669C125.223 31.3993 125.168 31.1119 125.173 30.8224C125.174 30.1069 125.445 29.4181 125.931 28.8936C126.167 28.6456 126.448 28.4446 126.759 28.3011C127.08 28.1499 127.431 28.073 127.786 28.0759C128.041 28.0574 128.297 28.0915 128.538 28.1761C128.779 28.2607 129 28.394 129.188 28.5677C129.348 28.7375 129.473 28.9377 129.555 29.1565C129.637 29.3753 129.674 29.6083 129.665 29.8417C129.665 29.9188 129.659 30.0363 129.647 30.1943C129.636 30.3391 129.613 30.4828 129.579 30.6239L125.827 30.6032ZM128.975 30.1203C128.975 30.0699 128.975 30.0136 128.975 29.9514C128.975 29.8892 128.975 29.8329 128.975 29.7825C128.981 29.6264 128.956 29.4706 128.902 29.3242C128.848 29.1778 128.765 29.0435 128.659 28.9292C128.534 28.8121 128.387 28.7222 128.226 28.665C128.065 28.6079 127.894 28.5849 127.724 28.5974C127.282 28.5939 126.854 28.7555 126.525 29.0507C126.368 29.1915 126.234 29.3553 126.126 29.5366C126.017 29.72 125.939 29.9203 125.895 30.1291L128.975 30.1203Z" fill="#565656"/>
<path d="M131.449 28.1736L131.745 31.8387H131.762L133.668 28.1736H134.283L134.813 31.8387H134.843L136.644 28.1736H137.337L135.035 32.6861H134.343L133.831 29.0299H133.81L131.931 32.6861H131.248L130.789 28.1736H131.449Z" fill="#565656"/>
<path d="M140.742 29.1662C140.648 28.9948 140.507 28.8533 140.337 28.7573C140.14 28.6466 139.918 28.5913 139.692 28.5973C139.571 28.598 139.45 28.6109 139.331 28.6358C139.21 28.6598 139.093 28.7017 138.985 28.7603C138.882 28.8156 138.793 28.8936 138.725 28.9884C138.655 29.0891 138.62 29.2097 138.624 29.3321C138.62 29.4345 138.641 29.5362 138.686 29.6284C138.729 29.7072 138.79 29.7751 138.864 29.8269C138.95 29.8868 139.043 29.9355 139.142 29.972C139.25 30.0135 139.375 30.054 139.517 30.0935C139.884 30.1843 140.229 30.3497 140.529 30.5794C140.647 30.6833 140.739 30.8125 140.799 30.9573C140.859 31.102 140.885 31.2585 140.876 31.415C140.881 31.6364 140.825 31.855 140.713 32.046C140.607 32.2184 140.466 32.3659 140.299 32.4786C140.128 32.5928 139.939 32.676 139.739 32.7245C139.541 32.775 139.337 32.8009 139.133 32.8016C138.767 32.8046 138.405 32.7341 138.068 32.5942C137.75 32.4658 137.479 32.2423 137.292 31.9542L137.852 31.5868C137.973 31.7848 138.142 31.9489 138.343 32.0638C138.573 32.1991 138.836 32.2678 139.103 32.2623C139.242 32.2622 139.381 32.2473 139.517 32.2179C139.644 32.1916 139.766 32.1456 139.878 32.0816C139.982 32.0224 140.069 31.939 140.133 31.8386C140.199 31.7331 140.233 31.6106 140.231 31.4861C140.234 31.3771 140.208 31.2692 140.156 31.1735C140.104 31.0777 140.028 30.9974 139.935 30.9409C139.68 30.7859 139.407 30.6644 139.121 30.5794C138.987 30.534 138.852 30.4826 138.716 30.4254C138.582 30.3684 138.459 30.2915 138.349 30.1972C138.24 30.103 138.15 29.9883 138.085 29.8595C138.014 29.7097 137.98 29.5452 137.985 29.3795C137.981 29.1708 138.036 28.9652 138.145 28.7869C138.248 28.6217 138.386 28.4811 138.55 28.3751C138.72 28.266 138.907 28.1859 139.103 28.1381C139.304 28.0872 139.511 28.0613 139.719 28.061C140.04 28.0551 140.358 28.1241 140.648 28.2625C140.896 28.3758 141.103 28.5644 141.239 28.8017L140.742 29.1662Z" fill="#565656"/>
<path d="M139.444 12.4528C139.512 12.2147 139.612 11.9867 139.739 11.7743C139.985 11.3541 140.335 11.0042 140.754 10.758C140.966 10.6307 141.192 10.5311 141.429 10.4618C141.921 10.3263 142.44 10.3263 142.932 10.4618C143.17 10.5308 143.397 10.6303 143.609 10.758C144.029 11.0042 144.379 11.3541 144.624 11.7743C144.752 11.9867 144.851 12.2148 144.92 12.4528C145.056 12.9453 145.056 13.4654 144.92 13.9579C144.721 14.6685 144.254 15.274 143.618 15.6467C143.406 15.7744 143.179 15.874 142.941 15.943C142.449 16.0784 141.93 16.0784 141.438 15.943C141.201 15.8737 140.974 15.7741 140.763 15.6467C140.127 15.2745 139.66 14.6688 139.461 13.9579C139.326 13.4653 139.326 12.9453 139.461 12.4528H139.444ZM140.035 14.1386C140.149 14.4188 140.316 14.6743 140.526 14.8912C140.736 15.1053 140.985 15.2764 141.26 15.3949C141.547 15.5187 141.856 15.5812 142.169 15.5786C142.482 15.5809 142.792 15.5183 143.08 15.3949C143.354 15.272 143.601 15.0969 143.808 14.8793C144.019 14.6627 144.187 14.4072 144.302 14.1268C144.424 13.8308 144.485 13.5135 144.482 13.1935C144.484 12.7683 144.376 12.3499 144.169 11.9787C144.07 11.8024 143.949 11.64 143.808 11.4958C143.667 11.352 143.509 11.2266 143.337 11.1225C143.164 11.0177 142.976 10.937 142.781 10.8825C142.372 10.7697 141.941 10.7697 141.532 10.8825C141.338 10.9373 141.152 11.0181 140.979 11.1225C140.809 11.2262 140.653 11.3516 140.515 11.4958C140.375 11.6408 140.255 11.8031 140.157 11.9787C140.056 12.1597 139.978 12.3529 139.926 12.5535C139.872 12.7625 139.845 12.9776 139.846 13.1935C139.846 13.5182 139.912 13.8396 140.038 14.1386H140.035ZM141.74 14.9179H140.92V11.478H142.151C142.519 11.449 142.888 11.5393 143.201 11.7358C143.311 11.8234 143.399 11.936 143.457 12.0643C143.515 12.1926 143.542 12.3328 143.536 12.4735C143.545 12.6944 143.479 12.912 143.346 13.0891C143.214 13.2663 143.025 13.3922 142.811 13.4453C142.867 13.4766 142.916 13.5189 142.956 13.5698C142.998 13.6255 143.036 13.6839 143.071 13.7446L143.763 14.9297H142.973C142.925 14.9342 142.876 14.9246 142.833 14.902C142.79 14.8794 142.755 14.8448 142.731 14.8023L142.18 13.792C142.158 13.7588 142.129 13.7306 142.095 13.709C142.05 13.687 142 13.6768 141.95 13.6794H141.737L141.74 14.9179ZM142.08 13.0839C142.188 13.0862 142.297 13.0753 142.402 13.0513C142.475 13.0356 142.544 13.002 142.601 12.9535C142.648 12.9105 142.681 12.855 142.698 12.7935C142.717 12.722 142.726 12.6482 142.725 12.5743C142.726 12.5034 142.718 12.4327 142.701 12.3639C142.691 12.3071 142.664 12.2546 142.624 12.2128C142.574 12.1685 142.512 12.1379 142.447 12.1239C142.35 12.1018 142.25 12.0918 142.151 12.0943H141.737V13.0809L142.08 13.0839Z" fill="#9ECD51"/>
<path d="M5.2285 28.3336C5.04506 14.4527 16.4008 12.7461 18.966 13.2943C19.2619 13.3565 19.5578 13.4039 19.8537 13.4394C16.818 12.4173 12.7526 9.96402 13.0485 4.17167C13.0485 4.17167 20.1495 4.81461 22.6171 12.5121C23.7 7.92856 25.4339 1.79251 26.9754 1.79251C28.8749 1.79251 27.792 3.43096 27.792 3.43096C27.792 3.43096 25.1291 9.55811 24.6824 13.3505C25.2031 13.2943 25.0049 13.3002 25.0049 13.3002C27.7831 12.7076 31.7538 12.7639 34.9285 15.0068V0H0.012207V34.9793H6.11317C5.53712 32.8108 5.23982 30.5775 5.2285 28.3336Z" fill="#9ECD51"/>
</g>
<defs>
<clipPath id="clip0">
<rect width="145" height="35" fill="white"/>
</clipPath>
</defs>
</svg>
